<svg width="12" height="13" viewBox="0 0 12 13" fill="none" xmlns="http://www.w3.org/2000/svg">
<g id="Add">
<path id="Vector" d="M6.49984 1.12109C6.49984 0.844951 6.27598 0.621094 5.99984 0.621094C5.72369 0.621094 5.49984 0.844951 5.49984 1.12109L5.49984 5.95443H0.666504C0.390362 5.95443 0.166504 6.17829 0.166504 6.45443C0.166504 6.73057 0.390362 6.95443 0.666504 6.95443H5.49984V11.7878C5.49984 12.0639 5.7237 12.2878 5.99984 12.2878C6.27598 12.2878 6.49984 12.0639 6.49984 11.7878V6.95443H11.3332C11.6093 6.95443 11.8332 6.73057 11.8332 6.45443C11.8332 6.17829 11.6093 5.95443 11.3332 5.95443H6.49984L6.49984 1.12109Z" fill="#747474"/>
</g>
</svg>
