<svg width="22" height="25" viewBox="0 0 22 25" fill="none" xmlns="http://www.w3.org/2000/svg">
<g id="Arrow Swap Horizontal">
<path id="Vector" d="M20.3332 8.20833C20.8855 8.20833 21.3332 7.76062 21.3332 7.20833C21.3332 6.65605 20.8855 6.20833 20.3332 6.20833V8.20833ZM4.05254 3.7388L3.34859 3.02854L3.34859 3.02854L4.05254 3.7388ZM6.63699 2.58525C7.02925 2.19648 7.03207 1.56332 6.6433 1.17106C6.25452 0.778792 5.62136 0.775967 5.2291 1.16475L6.63699 2.58525ZM18.2141 21.3445L18.9181 22.0548L18.9181 22.0548L18.2141 21.3445ZM15.6297 22.4981C15.2374 22.8869 15.2346 23.52 15.6234 23.9123C16.0122 24.3045 16.6453 24.3074 17.0376 23.9186L15.6297 22.4981ZM20.5791 18.2092L21.5711 18.3357L21.5711 18.3357L20.5791 18.2092ZM1.66651 16.875C1.11422 16.875 0.666506 17.3227 0.666506 17.875C0.666506 18.4273 1.11422 18.875 1.66651 18.875V16.875ZM20.5868 18.1417L21.5817 18.2426L20.5868 18.1417ZM2.00162 8.20833H20.3332V6.20833H2.00162V8.20833ZM4.75648 4.44905L6.63699 2.58525L5.2291 1.16475L3.34859 3.02854L4.75648 4.44905ZM3.34859 3.02854C2.61547 3.75516 2.00453 4.35854 1.5713 4.89799C1.12539 5.45322 0.786231 6.03675 0.695615 6.74767L2.67956 7.00055C2.7044 6.80567 2.79788 6.56471 3.13068 6.15032C3.47614 5.72015 3.98995 5.20877 4.75648 4.44905L3.34859 3.02854ZM17.5102 20.6343L15.6297 22.4981L17.0376 23.9186L18.9181 22.0548L17.5102 20.6343ZM18.9181 22.0548C19.6512 21.3282 20.2621 20.7248 20.6954 20.1853C21.1413 19.6301 21.4804 19.0466 21.5711 18.3357L19.5871 18.0828C19.5623 18.2777 19.4688 18.5186 19.136 18.933C18.7905 19.3632 18.2767 19.8746 17.5102 20.6343L18.9181 22.0548ZM19.5919 18.0408C19.5905 18.0548 19.5889 18.0688 19.5871 18.0828L21.5711 18.3357C21.575 18.3047 21.5786 18.2736 21.5817 18.2426L19.5919 18.0408ZM20.3332 16.875H1.66651V18.875H20.3332V16.875ZM21.5817 18.2426C21.6632 17.4388 21.0025 16.875 20.3332 16.875L20.3332 18.875C19.9589 18.875 19.5402 18.551 19.5919 18.0408L21.5817 18.2426ZM2.00162 6.20833C2.32862 6.20833 2.74333 6.50025 2.67956 7.00055L0.695615 6.74767C0.585044 7.61516 1.30446 8.20833 2.00162 8.20833V6.20833Z" fill="#444444"/>
</g>
</svg>
