<svg width="16" height="16" viewBox="0 0 16 16" fill="none" xmlns="http://www.w3.org/2000/svg">
<path id="Vector" d="M1.2 15.6C0.88 15.6 0.6 15.48 0.36 15.24C0.12 15 0 14.72 0 14.4V4.79999C0 4.47999 0.12 4.19999 0.36 3.95999C0.6 3.71999 0.88 3.59999 1.2 3.59999H4.8V1.59999C4.8 1.27999 4.92 0.999994 5.16 0.759994C5.4 0.519994 5.68 0.399994 6 0.399994H10C10.32 0.399994 10.6 0.519994 10.84 0.759994C11.08 0.999994 11.2 1.27999 11.2 1.59999V3.59999H14.8C15.12 3.59999 15.4 3.71999 15.64 3.95999C15.88 4.19999 16 4.47999 16 4.79999V14.4C16 14.72 15.88 15 15.64 15.24C15.4 15.48 15.12 15.6 14.8 15.6H1.2ZM1.2 14.4H14.8V4.79999H1.2V14.4ZM6 3.59999H10V1.59999H6V3.59999Z" fill="#747474"/>
</svg>
