<svg width="20" height="19" viewBox="0 0 20 19" fill="none" xmlns="http://www.w3.org/2000/svg">
<path id="Vector" d="M1.90285 18.421C1.37788 18.421 0.929502 18.2351 0.557712 17.8633C0.185904 17.4915 0 17.0431 0 16.5181V5.58701C0 5.06205 0.185904 4.61367 0.557712 4.24188C0.929502 3.87007 1.37788 3.68417 1.90285 3.68417H6.31581V1.90282C6.31581 1.37785 6.50171 0.929476 6.87352 0.557686C7.24531 0.185896 7.69369 0 8.21865 0H11.7813C12.3063 0 12.7547 0.185896 13.1265 0.557686C13.4983 0.929476 13.6842 1.37785 13.6842 1.90282V3.68417H18.0972C18.6221 3.68417 19.0705 3.87007 19.4423 4.24188C19.8141 4.61367 20 5.06205 20 5.58701V16.5181C20 17.0431 19.8141 17.4915 19.4423 17.8633C19.0705 18.2351 18.6221 18.421 18.0972 18.421H1.90285ZM7.89473 3.68417H12.1053V1.90282C12.1053 1.82184 12.0715 1.74761 12.0041 1.68014C11.9366 1.61265 11.8623 1.5789 11.7813 1.5789H8.21865C8.13767 1.5789 8.06343 1.61265 7.99594 1.68014C7.92847 1.74761 7.89473 1.82184 7.89473 1.90282V3.68417ZM4.21054 5.26309H1.90285C1.82186 5.26309 1.74763 5.29683 1.68014 5.3643C1.61266 5.43179 1.57893 5.50603 1.57893 5.58701V16.5181C1.57893 16.5991 1.61266 16.6734 1.68014 16.7409C1.74763 16.8083 1.82186 16.8421 1.90285 16.8421H4.21054V5.26309ZM14.2105 16.8421V5.26309H5.78946V16.8421H14.2105ZM15.7895 5.26309V16.8421H18.0972C18.1781 16.8421 18.2524 16.8083 18.3199 16.7409C18.3873 16.6734 18.4211 16.5991 18.4211 16.5181V5.58701C18.4211 5.50603 18.3873 5.43179 18.3199 5.3643C18.2524 5.29683 18.1781 5.26309 18.0972 5.26309H15.7895Z" fill="#444444"/>
</svg>
