<svg width="33" height="33" viewBox="0 0 33 33" fill="none" xmlns="http://www.w3.org/2000/svg">
<g id="bed">
<mask id="mask0_4014_27159" style="mask-type:alpha" maskUnits="userSpaceOnUse" x="0" y="0" width="33" height="33">
<rect id="Bounding box" x="0.697266" y="0.21875" width="32" height="32" fill="#2587CF"/>
</mask>
<g mask="url(#mask0_4014_27159)">
<path id="bed_2" d="M5.03052 24.8854C4.74163 24.8854 4.50296 24.7912 4.31452 24.6027C4.12518 24.4134 4.03052 24.1743 4.03052 23.8854V17.5521C4.03052 17.0632 4.14741 16.5854 4.38118 16.1187C4.61407 15.6521 4.94163 15.2632 5.36385 14.9521V11.5521C5.36385 10.6187 5.68607 9.82986 6.33052 9.18542C6.97496 8.54097 7.76385 8.21875 8.69718 8.21875H14.3639C14.8527 8.21875 15.2861 8.31342 15.6639 8.50275C16.0416 8.69119 16.3861 8.95208 16.6972 9.28542C17.0083 8.95208 17.3527 8.69119 17.7305 8.50275C18.1083 8.31342 18.5416 8.21875 19.0305 8.21875H24.6972C25.6305 8.21875 26.4194 8.54097 27.0639 9.18542C27.7083 9.82986 28.0305 10.6187 28.0305 11.5521V14.9521C28.4527 15.2632 28.7807 15.6521 29.0145 16.1187C29.2474 16.5854 29.3639 17.0632 29.3639 17.5521V23.8854C29.3639 24.1743 29.2696 24.4134 29.0812 24.6027C28.8919 24.7912 28.6527 24.8854 28.3639 24.8854C28.075 24.8854 27.8359 24.7912 27.6465 24.6027C27.4581 24.4134 27.3639 24.1743 27.3639 23.8854V22.2187H6.03052V23.8854C6.03052 24.1743 5.9363 24.4134 5.74785 24.6027C5.55852 24.7912 5.31941 24.8854 5.03052 24.8854ZM17.6972 14.2187H26.0305V11.5521C26.0305 11.1743 25.9025 10.8574 25.6465 10.6014C25.3914 10.3463 25.075 10.2187 24.6972 10.2187H19.0305C18.6527 10.2187 18.3363 10.3463 18.0812 10.6014C17.8252 10.8574 17.6972 11.1743 17.6972 11.5521V14.2187ZM7.36385 14.2187H15.6972V11.5521C15.6972 11.1743 15.5696 10.8574 15.3145 10.6014C15.0585 10.3463 14.7416 10.2187 14.3639 10.2187H8.69718C8.31941 10.2187 8.00252 10.3463 7.74652 10.6014C7.49141 10.8574 7.36385 11.1743 7.36385 11.5521V14.2187ZM6.03052 20.2187H27.3639V17.5521C27.3639 17.1743 27.2359 16.8574 26.9799 16.6014C26.7247 16.3463 26.4083 16.2187 26.0305 16.2187H7.36385C6.98607 16.2187 6.66918 16.3463 6.41318 16.6014C6.15807 16.8574 6.03052 17.1743 6.03052 17.5521V20.2187Z" fill="#4B4B4D"/>
</g>
</g>
</svg>
