<svg width="19" height="19" viewBox="0 0 19 19" fill="none" xmlns="http://www.w3.org/2000/svg">
<rect width="19" height="19" fill="#222222"/>
<g id="Listing - Room or multiple room short and long-term" clip-path="url(#clip0_79_6011)">
<rect width="1440" height="4496" transform="translate(-558 -3695)" fill="#FEFEFE"/>
<g id="Frame 1000008306">
<g id="Frame 1171276388">
<g id="Policies and rules">
<g id="Frame 1171276387">
<g id="Frame 1000008327">
<g id="Frame 1171276389">
<g id="Frame 1171276386">
<path id="Vector" d="M9.50165 19C8.18772 19 6.95268 18.7506 5.79655 18.252C4.6404 17.7533 3.63472 17.0765 2.7795 16.2217C1.92427 15.3669 1.24721 14.3616 0.748325 13.206C0.249442 12.0504 0 10.8156 0 9.50165C0 8.18772 0.249334 6.95268 0.748 5.79655C1.24667 4.6404 1.92342 3.63472 2.77825 2.7795C3.6331 1.92427 4.63834 1.24721 5.79398 0.748326C6.94959 0.249443 8.18437 0 9.4983 0C10.8122 0 12.0473 0.249334 13.2034 0.748001C14.3596 1.24667 15.3652 1.92342 16.2205 2.77825C17.0757 3.6331 17.7527 4.63834 18.2516 5.79398C18.7505 6.94959 19 8.18437 19 9.4983C19 10.8122 18.7506 12.0473 18.252 13.2034C17.7533 14.3596 17.0765 15.3652 16.2217 16.2205C15.3669 17.0757 14.3616 17.7527 13.206 18.2516C12.0504 18.7505 10.8156 19 9.50165 19ZM9.49998 17.5C10.4382 17.5 11.3417 17.3413 12.2104 17.024C13.0791 16.7067 13.8731 16.2474 14.5923 15.6461L3.35383 4.40765C2.75896 5.12688 2.30127 5.92086 1.98075 6.78958C1.66023 7.65829 1.49998 8.56176 1.49998 9.49998C1.49998 11.7333 2.27498 13.625 3.82498 15.175C5.37498 16.725 7.26664 17.5 9.49998 17.5ZM15.6461 14.5923C16.2474 13.8731 16.7067 13.0791 17.024 12.2104C17.3413 11.3417 17.5 10.4382 17.5 9.49998C17.5 7.26664 16.725 5.37498 15.175 3.82498C13.625 2.27498 11.7333 1.49998 9.49998 1.49998C8.55951 1.49998 7.65388 1.65703 6.78308 1.97113C5.91228 2.28524 5.12047 2.74614 4.40765 3.35383L15.6461 14.5923Z" fill="#4B4B4D"/>
</g>
</g>
</g>
</g>
</g>
</g>
</g>
</g>
<defs>
<clipPath id="clip0_79_6011">
<rect width="1440" height="4496" fill="white" transform="translate(-558 -3695)"/>
</clipPath>
</defs>
</svg>
