<svg width="28" height="23" viewBox="0 0 28 23" fill="none" xmlns="http://www.w3.org/2000/svg">
<path id="Vector" d="M17.9 17.9H12.7M8.8 17.9H6.2M1.01436 8.8C1 9.5501 1 10.4074 1 11.4C1 15.0404 1 16.8605 1.70846 18.251C2.33163 19.474 3.32601 20.4684 4.54906 21.0915C5.93949 21.8 7.75966 21.8 11.4 21.8H16.6C20.2404 21.8 22.0605 21.8 23.451 21.0915C24.674 20.4684 25.6684 19.474 26.2915 18.251C27 16.8605 27 15.0404 27 11.4C27 10.4074 27 9.5501 26.9857 8.8M1.01436 8.8C1.05268 6.79901 1.19317 5.56036 1.70846 4.54906C2.33163 3.32601 3.32601 2.33163 4.54906 1.70846C5.93949 1 7.75966 1 11.4 1H16.6C20.2404 1 22.0605 1 23.451 1.70846C24.674 2.33163 25.6684 3.32601 26.2915 4.54906C26.8068 5.56036 26.9474 6.79901 26.9857 8.8M1.01436 8.8H26.9857" stroke="#4B4B4D" stroke-width="1.5" stroke-linecap="round"/>
</svg>
