<svg width="18" height="18" viewBox="0 0 18 18" fill="none" xmlns="http://www.w3.org/2000/svg">
<g id="Close Circle">
<path id="Vector" fill-rule="evenodd" clip-rule="evenodd" d="M9.07895 17.4212C13.7298 17.4212 17.5 13.651 17.5 9.00015C17.5 4.34934 13.7298 0.579102 9.07895 0.579102C4.42813 0.579102 0.657898 4.34934 0.657898 9.00015C0.657898 13.651 4.42813 17.4212 9.07895 17.4212ZM11.3119 7.8647C11.5586 7.61805 11.5586 7.21816 11.3119 6.97151C11.0653 6.72487 10.6654 6.72487 10.4187 6.97151L9.07894 8.3113L7.73915 6.97151C7.49251 6.72487 7.09261 6.72487 6.84597 6.97151C6.59932 7.21816 6.59932 7.61806 6.84597 7.8647L8.18575 9.20448L6.84597 10.5443C6.59932 10.7909 6.59932 11.1908 6.84597 11.4375C7.09261 11.6841 7.49251 11.6841 7.73916 11.4375L9.07894 10.0977L10.4187 11.4375C10.6654 11.6841 11.0653 11.6841 11.3119 11.4375C11.5586 11.1908 11.5586 10.7909 11.3119 10.5443L9.97212 9.20448L11.3119 7.8647Z" fill="#747474"/>
</g>
</svg>
