<svg width="18" height="18" viewBox="0 0 18 18" fill="none" xmlns="http://www.w3.org/2000/svg">
<g id="Close Circle">
<path id="Vector" fill-rule="evenodd" clip-rule="evenodd" d="M9.39469 17.7991C14.0455 17.7991 17.8157 14.0289 17.8157 9.37808C17.8157 4.72726 14.0455 0.957031 9.39469 0.957031C4.74387 0.957031 0.973633 4.72726 0.973633 9.37808C0.973633 14.0289 4.74387 17.7991 9.39469 17.7991ZM11.6276 8.24263C11.8743 7.99598 11.8743 7.59609 11.6276 7.34944C11.381 7.1028 10.9811 7.1028 10.7345 7.34944L9.39467 8.68923L8.05489 7.34944C7.80824 7.1028 7.40835 7.1028 7.1617 7.34944C6.91506 7.59609 6.91506 7.99599 7.1617 8.24263L8.50148 9.58241L7.1617 10.9222C6.91506 11.1688 6.91506 11.5687 7.1617 11.8154C7.40835 12.062 7.80824 12.062 8.05489 11.8154L9.39467 10.4756L10.7345 11.8154C10.9811 12.062 11.381 12.062 11.6276 11.8154C11.8743 11.5687 11.8743 11.1688 11.6276 10.9222L10.2879 9.58241L11.6276 8.24263Z" fill="#747474"/>
</g>
</svg>
