<svg width="12" height="12" viewBox="0 0 12 12" fill="none" xmlns="http://www.w3.org/2000/svg">
<g id="Close">
<path id="Vector" d="M11.2836 1.45902C11.4891 1.25349 11.4891 0.92024 11.2836 0.714701C11.0781 0.509162 10.7448 0.509162 10.5393 0.714701L5.99915 5.25483L1.45902 0.714703C1.25349 0.509164 0.92024 0.509164 0.714701 0.714703C0.509162 0.920242 0.509162 1.25349 0.714701 1.45903L5.25483 5.99915L0.71472 10.5393C0.509181 10.7448 0.509181 11.078 0.71472 11.2836C0.920259 11.4891 1.2535 11.4891 1.45904 11.2836L5.99915 6.74348L10.5393 11.2836C10.7448 11.4891 11.078 11.4891 11.2836 11.2836C11.4891 11.078 11.4891 10.7448 11.2836 10.5393L6.74347 5.99915L11.2836 1.45902Z" fill="#444444"/>
</g>
</svg>
