<svg width="33" height="33" viewBox="0 0 33 33" fill="none" xmlns="http://www.w3.org/2000/svg">
<g id="cottage">
<mask id="mask0_4014_27166" style="mask-type:alpha" maskUnits="userSpaceOnUse" x="0" y="0" width="33" height="33">
<rect id="Bounding box" x="0.0305176" y="0.21875" width="32" height="32" fill="#D9D9D9"/>
</mask>
<g mask="url(#mask0_4014_27166)">
<path id="cottage_2" d="M6.43032 27.4172V16.1836L4.29752 17.8172L2.83032 15.8844L6.43032 13.15V9.01719H8.83032V11.318L16.0303 5.81719L29.2303 15.8844L27.7631 17.8172L25.6303 16.1836V27.4172H6.43032ZM8.83032 25.0172H14.8303V20.2172H17.2303V25.0172H23.2303V14.35L16.0303 8.85079L8.83032 14.3164V25.0172ZM6.43032 7.41719C6.43032 6.35052 6.76366 5.48385 7.43032 4.81719C8.09699 4.15052 8.96366 3.81719 10.0303 3.81719C10.4079 3.81719 10.7023 3.71159 10.9135 3.50039C11.1247 3.28919 11.2303 2.99479 11.2303 2.61719H13.6303C13.6303 3.68385 13.297 4.55052 12.6303 5.21719C11.9637 5.88385 11.097 6.21719 10.0303 6.21719C9.65272 6.21719 9.35832 6.32279 9.14712 6.53399C8.93592 6.74519 8.83032 7.03959 8.83032 7.41719H6.43032Z" fill="#4B4B4D"/>
</g>
</g>
</svg>
