<svg width="32" height="32" viewBox="0 0 32 32" fill="none" xmlns="http://www.w3.org/2000/svg">
<g id="desktop_windows">
<mask id="mask0_4014_27778" style="mask-type:alpha" maskUnits="userSpaceOnUse" x="0" y="0" width="32" height="32">
<rect id="Bounding box" width="32" height="32" fill="#D9D9D9"/>
</mask>
<g mask="url(#mask0_4014_27778)">
<path id="desktop_windows_2" d="M13.9997 25.3346V22.6679H5.74327C5.06976 22.6679 4.49967 22.4346 4.03301 21.9679C3.56634 21.5013 3.33301 20.9312 3.33301 20.2577V7.07824C3.33301 6.40473 3.56634 5.83464 4.03301 5.36797C4.49967 4.9013 5.06976 4.66797 5.74327 4.66797H26.256C26.9295 4.66797 27.4996 4.9013 27.9663 5.36797C28.4329 5.83464 28.6663 6.40473 28.6663 7.07824V20.2577C28.6663 20.9312 28.4329 21.5013 27.9663 21.9679C27.4996 22.4346 26.9295 22.6679 26.256 22.6679H17.9996V25.3346H19.6663C19.95 25.3346 20.1876 25.4303 20.3791 25.6218C20.5705 25.8132 20.6663 26.0508 20.6663 26.3346C20.6663 26.6183 20.5705 26.8559 20.3791 27.0474C20.1876 27.2388 19.95 27.3346 19.6663 27.3346H12.333C12.0493 27.3346 11.8117 27.2388 11.6202 27.0474C11.4287 26.8559 11.333 26.6183 11.333 26.3346C11.333 26.0508 11.4287 25.8132 11.6202 25.6218C11.8117 25.4303 12.0493 25.3346 12.333 25.3346H13.9997ZM5.74327 20.668H26.256C26.3586 20.668 26.4526 20.6252 26.5381 20.5398C26.6236 20.4543 26.6663 20.3603 26.6663 20.2577V7.07824C26.6663 6.97566 26.6236 6.88163 26.5381 6.79614C26.4526 6.71067 26.3586 6.66794 26.256 6.66794H5.74327C5.6407 6.66794 5.54666 6.71067 5.46117 6.79614C5.37571 6.88163 5.33297 6.97566 5.33297 7.07824V20.2577C5.33297 20.3603 5.37571 20.4543 5.46117 20.5398C5.54666 20.6252 5.6407 20.668 5.74327 20.668Z" fill="#4B4B4D"/>
</g>
</g>
</svg>
