<svg width="23" height="23" viewBox="0 0 23 23" fill="none" xmlns="http://www.w3.org/2000/svg">
<path id="Vector" d="M2.02938 9.73072V20.5543C2.02938 20.6584 2.07275 20.7538 2.15947 20.8405C2.24622 20.9273 2.34163 20.9706 2.44572 20.9706H20.5543C20.6584 20.9706 20.7538 20.9273 20.8405 20.8405C20.9273 20.7538 20.9706 20.6584 20.9706 20.5543V9.73072H2.02938ZM2.02938 7.70137H20.9706V2.44572C20.9706 2.34163 20.9273 2.24622 20.8405 2.15947C20.7538 2.07275 20.6584 2.02938 20.5543 2.02938H2.44572C2.34163 2.02938 2.24622 2.07275 2.15947 2.15947C2.07275 2.24622 2.02938 2.34163 2.02938 2.44572V7.70137ZM11.5 19.2794C10.8426 19.2794 10.2837 19.047 9.82316 18.5821C9.36264 18.1173 9.13238 17.5518 9.13238 16.8858C9.13238 16.5961 9.16837 16.2991 9.24034 15.9947C9.31232 15.6902 9.44111 15.3594 9.62671 15.0021C9.83139 14.6205 10.0473 14.2545 10.2746 13.9041C10.5018 13.5537 10.7403 13.199 10.99 12.84C11.1167 12.663 11.2867 12.5746 11.5 12.5746C11.7133 12.5746 11.8833 12.663 12.01 12.84C12.2597 13.199 12.4982 13.5559 12.7254 13.9106C12.9527 14.2653 13.1686 14.6335 13.3733 15.0151C13.5589 15.3724 13.6877 15.7011 13.7597 16.0011C13.8316 16.3012 13.8676 16.5961 13.8676 16.8858C13.8676 17.5518 13.6374 18.1173 13.1768 18.5821C12.7163 19.047 12.1574 19.2794 11.5 19.2794ZM18.2647 5.93209C18.6047 5.93209 18.8892 5.81762 19.1181 5.58868C19.3471 5.35972 19.4615 5.07525 19.4615 4.73527C19.4615 4.3953 19.3471 4.11083 19.1181 3.88187C18.8892 3.65293 18.6047 3.53846 18.2647 3.53846C17.9248 3.53846 17.6403 3.65293 17.4113 3.88187C17.1824 4.11083 17.0679 4.3953 17.0679 4.73527C17.0679 5.07525 17.1824 5.35972 17.4113 5.58868C17.6403 5.81762 17.9248 5.93209 18.2647 5.93209ZM2.44572 23C1.7623 23 1.18383 22.7632 0.710296 22.2897C0.236765 21.8162 0 21.2377 0 20.5543V2.44572C0 1.7623 0.236765 1.18383 0.710296 0.710296C1.18383 0.236765 1.7623 0 2.44572 0H20.5543C21.2377 0 21.8162 0.236765 22.2897 0.710296C22.7632 1.18383 23 1.7623 23 2.44572V20.5543C23 21.2377 22.7632 21.8162 22.2897 22.2897C21.8162 22.7632 21.2377 23 20.5543 23H2.44572Z" fill="#4B4B4D"/>
</svg>
