<svg width="32" height="32" viewBox="0 0 32 32" fill="none" xmlns="http://www.w3.org/2000/svg">
<g id="dishwasher_gen">
<mask id="mask0_4014_27806" style="mask-type:alpha" maskUnits="userSpaceOnUse" x="0" y="0" width="32" height="32">
<rect id="Bounding box" width="32" height="32" fill="#D9D9D9"/>
</mask>
<g mask="url(#mask0_4014_27806)">
<path id="dishwasher_gen_2" d="M10.6666 9.17813C10.9931 9.17813 11.2713 9.06318 11.5012 8.83327C11.7311 8.60335 11.8461 8.32515 11.8461 7.99867C11.8461 7.67218 11.7311 7.39398 11.5012 7.16406C11.2713 6.93415 10.9931 6.8192 10.6666 6.8192C10.3401 6.8192 10.0619 6.93415 9.83203 7.16406C9.60212 7.39398 9.48717 7.67218 9.48717 7.99867C9.48717 8.32515 9.60212 8.60335 9.83203 8.83327C10.0619 9.06318 10.3401 9.17813 10.6666 9.17813ZM14.6666 9.17813C14.9931 9.17813 15.2713 9.06318 15.5012 8.83327C15.7311 8.60335 15.8461 8.32515 15.8461 7.99867C15.8461 7.67218 15.7311 7.39398 15.5012 7.16406C15.2713 6.93415 14.9931 6.8192 14.6666 6.8192C14.3401 6.8192 14.0619 6.93415 13.832 7.16406C13.6021 7.39398 13.4872 7.67218 13.4872 7.99867C13.4872 8.32515 13.6021 8.60335 13.832 8.83327C14.0619 9.06318 14.3401 9.17813 14.6666 9.17813ZM16 23.6653C17.3059 23.6653 18.4213 23.2196 19.3461 22.3281C20.2709 21.4367 20.7333 20.3491 20.7333 19.0653C20.7333 18.4636 20.6307 17.8786 20.4256 17.3102C20.2205 16.7418 19.9085 16.2483 19.4897 15.8295L16.8435 13.1833C16.6025 12.9423 16.3213 12.8218 16 12.8218C15.6786 12.8218 15.3974 12.9423 15.1564 13.1833L12.6308 15.7089C12.1761 16.1636 11.8295 16.6807 11.591 17.2602C11.3526 17.8397 11.2444 18.4414 11.2667 19.0653C11.3111 20.3491 11.7902 21.4367 12.7038 22.3281C13.6175 23.2196 14.7162 23.6653 16 23.6653ZM16 21.7859C15.2393 21.7859 14.5935 21.5226 14.0628 20.9961C13.532 20.4696 13.2666 19.826 13.2666 19.0653C13.2666 18.6978 13.3299 18.3491 13.4564 18.0192C13.5829 17.6893 13.7811 17.3893 14.0512 17.1192L16 15.1704L17.9795 17.1499C18.2325 17.4029 18.4214 17.6978 18.5461 18.0346C18.6709 18.3713 18.7333 18.7149 18.7333 19.0653C18.7333 19.826 18.4679 20.4696 17.9372 20.9961C17.4064 21.5226 16.7607 21.7859 16 21.7859ZM8.41027 28.6653C7.74531 28.6653 7.17737 28.4298 6.70643 27.9589C6.23548 27.4879 6 26.92 6 26.255V5.7423C6 5.07734 6.23548 4.5094 6.70643 4.03846C7.17737 3.56751 7.74531 3.33203 8.41027 3.33203H23.5897C24.2546 3.33203 24.8226 3.56751 25.2935 4.03846C25.7645 4.5094 25.9999 5.07734 25.9999 5.7423V26.255C25.9999 26.92 25.7645 27.4879 25.2935 27.9589C24.8226 28.4298 24.2546 28.6653 23.5897 28.6653H8.41027ZM8.41027 26.6653H23.5897C23.7093 26.6653 23.8076 26.6269 23.8846 26.5499C23.9615 26.473 24 26.3747 24 26.255V5.7423C24 5.62263 23.9615 5.52433 23.8846 5.4474C23.8076 5.37046 23.7093 5.332 23.5897 5.332H8.41027C8.2906 5.332 8.1923 5.37046 8.11537 5.4474C8.03843 5.52433 7.99997 5.62263 7.99997 5.7423V26.255C7.99997 26.3747 8.03843 26.473 8.11537 26.5499C8.1923 26.6269 8.2906 26.6653 8.41027 26.6653Z" fill="#4B4B4D"/>
</g>
</g>
</svg>
