<svg width="26" height="27" viewBox="0 0 26 27" fill="none" xmlns="http://www.w3.org/2000/svg">
<g id="Download">
<path id="Vector" d="M6.62377 25.4179L6.46734 26.4056L6.46734 26.4056L6.62377 25.4179ZM1.08208 19.8762L2.06977 19.7198L1.08208 19.8762ZM24.9179 19.8762L25.9056 20.0327L25.9056 20.0327L24.9179 19.8762ZM19.3762 25.4179L19.5327 26.4056L19.5327 26.4056L19.3762 25.4179ZM24.4667 11.5661C24.135 11.1245 23.5082 11.0354 23.0666 11.3671C22.625 11.6988 22.5359 12.3257 22.8676 12.7672L24.4667 11.5661ZM3.13241 12.7672C3.4641 12.3257 3.37501 11.6988 2.93342 11.3671C2.49183 11.0354 1.86497 11.1245 1.53328 11.5661L3.13241 12.7672ZM14 1.5C14 0.947715 13.5523 0.5 13 0.5C12.4477 0.5 12 0.947715 12 1.5H14ZM8.45024 14.212C8.10711 13.7793 7.47813 13.7066 7.04537 14.0498C6.61261 14.3929 6.53996 15.0219 6.88309 15.4546L8.45024 14.212ZM9.53046 17.184L8.74688 17.8053L8.74688 17.8053L9.53046 17.184ZM16.4695 17.184L15.686 16.5627L15.686 16.5627L16.4695 17.184ZM19.1169 15.4546C19.46 15.0219 19.3874 14.3929 18.9546 14.0498C18.5219 13.7066 17.8929 13.7793 17.5498 14.212L19.1169 15.4546ZM12.6658 20.1401L12.5084 21.1277L12.5084 21.1277L12.6658 20.1401ZM13.3342 20.1401L13.4916 21.1277L13.4916 21.1277L13.3342 20.1401ZM24 16.1667V17.5H26V16.1667H24ZM17 24.5H9V26.5H17V24.5ZM2 17.5V16.1667H0V17.5H2ZM9 24.5C7.72311 24.5 7.2011 24.4969 6.7802 24.4302L6.46734 26.4056C7.08288 26.5031 7.79954 26.5 9 26.5V24.5ZM0 17.5C0 18.7005 -0.00310346 19.4171 0.0943894 20.0327L2.06977 19.7198C2.0031 19.2989 2 18.7769 2 17.5H0ZM6.7802 24.4302C4.35548 24.0462 2.4538 22.1445 2.06977 19.7198L0.0943894 20.0327C0.613971 23.3132 3.18683 25.886 6.46734 26.4056L6.7802 24.4302ZM24 17.5C24 18.7769 23.9969 19.2989 23.9302 19.7198L25.9056 20.0327C26.0031 19.4171 26 18.7005 26 17.5H24ZM17 26.5C18.2005 26.5 18.9171 26.5031 19.5327 26.4056L19.2198 24.4302C18.7989 24.4969 18.2769 24.5 17 24.5V26.5ZM23.9302 19.7198C23.5462 22.1445 21.6445 24.0462 19.2198 24.4302L19.5327 26.4056C22.8132 25.886 25.386 23.3132 25.9056 20.0327L23.9302 19.7198ZM26 16.1667C26 14.4419 25.4292 12.8475 24.4667 11.5661L22.8676 12.7672C23.5789 13.7142 24 14.8898 24 16.1667H26ZM2 16.1667C2 14.8898 2.4211 13.7142 3.13241 12.7672L1.53328 11.5661C0.570752 12.8475 0 14.4419 0 16.1667H2ZM12 1.5V18.8333H14V1.5H12ZM6.88309 15.4546L8.74688 17.8053L10.314 16.5627L8.45024 14.212L6.88309 15.4546ZM17.2531 17.8053L19.1169 15.4546L17.5498 14.212L15.686 16.5627L17.2531 17.8053ZM8.74688 17.8053C9.47488 18.7234 10.073 19.4802 10.6074 20.0166C11.1462 20.5575 11.7442 21.0059 12.5084 21.1277L12.8231 19.1526C12.6815 19.13 12.4551 19.0376 12.0243 18.6052C11.589 18.1682 11.0724 17.5191 10.314 16.5627L8.74688 17.8053ZM15.686 16.5627C14.9276 17.5191 14.411 18.1682 13.9757 18.6052C13.5449 19.0376 13.3185 19.13 13.1769 19.1526L13.4916 21.1277C14.2558 21.0059 14.8538 20.5575 15.3926 20.0166C15.927 19.4802 16.5251 18.7234 17.2531 17.8053L15.686 16.5627ZM12.5084 21.1277C12.6712 21.1536 12.8355 21.1667 13 21.1667L13 19.1667C12.9413 19.1667 12.8822 19.162 12.8231 19.1526L12.5084 21.1277ZM13 21.1667C13.1645 21.1667 13.3288 21.1536 13.4916 21.1277L13.1769 19.1526C13.1178 19.162 13.0587 19.1667 13 19.1667L13 21.1667ZM12 18.8333V20.1667H14V18.8333H12Z" fill="#4B4B4D"/>
</g>
</svg>
