<svg width="20" height="26" viewBox="0 0 20 26" fill="none" xmlns="http://www.w3.org/2000/svg">
<path id="Vector" d="M2.40996 25.33C1.74509 25.33 1.17721 25.0946 0.706342 24.6237C0.235447 24.1528 0 23.5849 0 22.92V2.40996C0 1.74509 0.235447 1.17721 0.706342 0.706342C1.17721 0.235447 1.74509 0 2.40996 0H17.5874C18.2523 0 18.8201 0.235447 19.291 0.706342C19.7619 1.17721 19.9974 1.74509 19.9974 2.40996V22.92C19.9974 23.5849 19.7619 24.1528 19.291 24.6237C18.8201 25.0946 18.2523 25.33 17.5874 25.33H2.40996ZM2.40996 23.3303H17.5874C17.69 23.3303 17.784 23.2876 17.8695 23.2021C17.9549 23.1166 17.9976 23.0226 17.9976 22.92V2.40996C17.9976 2.30739 17.9549 2.21337 17.8695 2.12789C17.784 2.04244 17.69 1.99971 17.5874 1.99971H2.40996C2.30739 1.99971 2.21337 2.04244 2.12789 2.12789C2.04244 2.21337 1.99971 2.30739 1.99971 2.40996V22.92C1.99971 23.0226 2.04244 23.1166 2.12789 23.2021C2.21337 23.2876 2.30739 23.3303 2.40996 23.3303ZM9.99868 21.4843C11.6976 21.4843 13.1478 20.8836 14.3494 19.682C15.5509 18.4805 16.1517 17.0302 16.1517 15.3313C16.1517 13.6324 15.5509 12.1822 14.3494 10.9806C13.1478 9.77908 11.6976 9.17832 9.99868 9.17832C8.29976 9.17832 6.84953 9.77908 5.64797 10.9806C4.44644 12.1822 3.84567 13.6324 3.84567 15.3313C3.84567 17.0302 4.44644 18.4805 5.64797 19.682C6.84953 20.8836 8.29976 21.4843 9.99868 21.4843ZM9.99868 19.7308C9.42097 19.7308 8.86207 19.6231 8.32196 19.4077C7.78187 19.1924 7.30501 18.8779 6.89138 18.4643L13.1316 12.224C13.5452 12.6377 13.8597 13.1145 14.0751 13.6546C14.2904 14.1947 14.3981 14.7536 14.3981 15.3313C14.3981 16.5534 13.9704 17.5921 13.1149 18.4476C12.2595 19.303 11.2207 19.7308 9.99868 19.7308ZM4.66603 5.99919C5.04376 5.99919 5.36039 5.87143 5.61591 5.61591C5.87143 5.36039 5.99919 5.04376 5.99919 4.66603C5.99919 4.2883 5.87143 3.97168 5.61591 3.71615C5.36039 3.46063 5.04376 3.33287 4.66603 3.33287C4.2883 3.33287 3.97168 3.46063 3.71615 3.71615C3.46063 3.97168 3.33287 4.2883 3.33287 4.66603C3.33287 5.04376 3.46063 5.36039 3.71615 5.61591C3.97168 5.87143 4.2883 5.99919 4.66603 5.99919ZM8.66551 5.99919C9.04324 5.99919 9.35987 5.87143 9.61539 5.61591C9.87091 5.36039 9.99868 5.04376 9.99868 4.66603C9.99868 4.2883 9.87091 3.97168 9.61539 3.71615C9.35987 3.46063 9.04324 3.33287 8.66551 3.33287C8.28779 3.33287 7.97116 3.46063 7.71564 3.71615C7.46011 3.97168 7.33235 4.2883 7.33235 4.66603C7.33235 5.04376 7.46011 5.36039 7.71564 5.61591C7.97116 5.87143 8.28779 5.99919 8.66551 5.99919Z" fill="#4B4B4D"/>
</svg>
