<svg width="13" height="14" viewBox="0 0 13 14" fill="none" xmlns="http://www.w3.org/2000/svg">
<g id="Edit 2">
<path id="Vector" d="M5.3542 11.6793L5.08127 10.9807L5.3542 11.6793ZM2.64994 12.1985L2.27494 12.8481L2.27494 12.8481L2.64994 12.1985ZM1.74752 9.59694L1.00607 9.70986L1.74752 9.59694ZM2.07439 7.86209L2.72391 8.23709L2.07439 7.86209ZM1.68496 8.68693L0.947924 8.54807H0.947924L1.68496 8.68693ZM6.69319 10.5288L7.34271 10.9038L6.69319 10.5288ZM6.17357 11.2784L6.66235 11.8473H6.66235L6.17357 11.2784ZM4.60668 3.47603L3.95716 3.10103L4.60668 3.47603ZM11.94 13.25C12.3542 13.25 12.69 12.9142 12.69 12.5C12.69 12.0858 12.3542 11.75 11.94 11.75V13.25ZM7.94001 11.75C7.5258 11.75 7.19001 12.0858 7.19001 12.5C7.19001 12.9142 7.5258 13.25 7.94001 13.25V11.75ZM8.57596 5.7677L6.04367 10.1538L7.34271 10.9038L9.875 6.5177L8.57596 5.7677ZM2.72391 8.23709L5.2562 3.85103L3.95716 3.10103L1.42487 7.48709L2.72391 8.23709ZM5.08127 10.9807C4.34302 11.2691 3.86492 11.4539 3.50223 11.5387C3.15915 11.6188 3.06539 11.5724 3.02494 11.549L2.27494 12.8481C2.78946 13.1451 3.3314 13.119 3.8435 12.9993C4.33599 12.8843 4.93253 12.6492 5.62713 12.3778L5.08127 10.9807ZM1.00607 9.70986C1.11836 10.4471 1.21307 11.0812 1.35967 11.5653C1.5121 12.0686 1.76041 12.551 2.27494 12.8481L3.02494 11.549C2.98449 11.5257 2.8974 11.4677 2.79527 11.1305C2.68732 10.774 2.60831 10.2676 2.48897 9.48401L1.00607 9.70986ZM1.42487 7.48709C1.21885 7.84394 1.01908 8.17041 0.947924 8.54807L2.42199 8.8258C2.43492 8.75716 2.46675 8.68251 2.72391 8.23709L1.42487 7.48709ZM2.48897 9.48401C2.41153 8.97555 2.40906 8.89443 2.42199 8.8258L0.947924 8.54807C0.87677 8.92572 0.944034 9.30251 1.00607 9.70986L2.48897 9.48401ZM6.04367 10.1538C5.78651 10.5992 5.73777 10.6641 5.6848 10.7096L6.66235 11.8473C6.95383 11.5968 7.13669 11.2606 7.34271 10.9038L6.04367 10.1538ZM5.62713 12.3778C6.01093 12.2279 6.37087 12.0977 6.66235 11.8473L5.6848 10.7096C5.63182 10.7551 5.56033 10.7935 5.08127 10.9807L5.62713 12.3778ZM7.87442 3.14949C8.43711 3.47436 8.79299 3.68166 9.03382 3.86752C9.25742 4.04007 9.28894 4.12571 9.30091 4.17036L10.7498 3.78213C10.6188 3.29331 10.3067 2.95508 9.95023 2.68C9.611 2.41821 9.15038 2.15412 8.62442 1.85045L7.87442 3.14949ZM9.875 6.5177C10.1787 5.99173 10.4455 5.53271 10.6084 5.13638C10.7796 4.71992 10.8808 4.27094 10.7498 3.78213L9.30091 4.17036C9.31287 4.21501 9.32839 4.30493 9.22103 4.56616C9.10538 4.84753 8.90084 5.20501 8.57596 5.7677L9.875 6.5177ZM8.62442 1.85045C8.09845 1.54678 7.63943 1.27992 7.2431 1.11703C6.82663 0.945866 6.37766 0.844677 5.88884 0.975655L6.27707 2.42454C6.32172 2.41258 6.41164 2.39706 6.67288 2.50442C6.95425 2.62007 7.31172 2.82461 7.87442 3.14949L8.62442 1.85045ZM5.2562 3.85103C5.58107 3.28834 5.78838 2.93246 5.97423 2.69162C6.14678 2.46802 6.23242 2.43651 6.27707 2.42454L5.88884 0.975655C5.40003 1.10663 5.0618 1.41875 4.78671 1.77522C4.52493 2.11445 4.26083 2.57507 3.95716 3.10103L5.2562 3.85103ZM9.60048 5.49318L4.98168 2.82652L4.23168 4.12555L8.85048 6.79222L9.60048 5.49318ZM11.94 11.75H7.94001V13.25H11.94V11.75Z" fill="#4B4B4D"/>
</g>
</svg>
