<svg width="24" height="24" viewBox="0 0 24 24" fill="none" xmlns="http://www.w3.org/2000/svg">
<g id="Platform=Facebook, Color=Original 1" clip-path="url(#clip0_7418_48407)">
<g id="Clip path group">
<mask id="mask0_7418_48407" style="mask-type:luminance" maskUnits="userSpaceOnUse" x="0" y="0" width="24" height="24">
<g id="clip0_17_24">
<path id="Vector" d="M24 0H0V24H24V0Z" fill="white"/>
</g>
</mask>
<g mask="url(#mask0_7418_48407)">
<g id="Group">
<path id="Vector_2" d="M24 12C24 5.37265 18.6273 0 12 0C5.37265 0 0 5.37265 0 12C0 17.6275 3.87456 22.3498 9.1013 23.6467V15.6672H6.6269V12H9.1013V10.4199C9.1013 6.3355 10.9497 4.4424 14.9597 4.4424C15.72 4.4424 17.0319 4.59168 17.5685 4.74048V8.0645C17.2853 8.0347 16.7933 8.01985 16.1822 8.01985C14.2147 8.01985 13.4544 8.7653 13.4544 10.703V12H17.3741L16.7006 15.6672H13.4544V23.9121C19.3963 23.1945 24 18.1353 24 12Z" fill="#0866FF"/>
<path id="Vector_3" d="M16.7001 15.6672L17.3735 12H13.4538V10.703C13.4538 8.76528 14.2142 8.01983 16.1817 8.01983C16.7927 8.01983 17.2847 8.03468 17.5679 8.06448V4.74046C17.0313 4.59118 15.7194 4.44238 14.9591 4.44238C10.9492 4.44238 9.10074 6.33548 9.10074 10.4198V12H6.62634V15.6672H9.10074V23.6467C10.029 23.8771 11.0001 24 11.9994 24C12.4914 24 12.9767 23.9697 13.4534 23.9121V15.6672H16.7001Z" fill="white"/>
</g>
</g>
</g>
</g>
<defs>
<clipPath id="clip0_7418_48407">
<rect width="24" height="24" fill="white"/>
</clipPath>
</defs>
</svg>
