<svg width="22" height="18" viewBox="0 0 22 18" fill="none" xmlns="http://www.w3.org/2000/svg">
<path d="M14 14H10M7 14H5M1.01105 7C1 7.577 1 8.2365 1 9C1 11.8003 1 13.2004 1.54497 14.27C2.02433 15.2108 2.78924 15.9757 3.73005 16.455C4.79961 17 6.19974 17 9 17H13C15.8003 17 17.2004 17 18.27 16.455C19.2108 15.9757 19.9757 15.2108 20.455 14.27C21 13.2004 21 11.8003 21 9C21 8.2365 21 7.577 20.989 7M1.01105 7C1.04052 5.46078 1.14859 4.50797 1.54497 3.73005C2.02433 2.78924 2.78924 2.02433 3.73005 1.54497C4.79961 1 6.19974 1 9 1H13C15.8003 1 17.2004 1 18.27 1.54497C19.2108 2.02433 19.9757 2.78924 20.455 3.73005C20.8514 4.50797 20.9595 5.46078 20.989 7M1.01105 7H20.989" stroke="#B4B4B4" stroke-width="1.5" stroke-linecap="round"/>
</svg>
