<svg width="12" height="14" viewBox="0 0 12 14" fill="none" xmlns="http://www.w3.org/2000/svg">
<g id="Filter 5">
<path id="Vector" d="M5.99935 1.70833C5.65417 1.70833 5.37435 1.98816 5.37435 2.33333C5.37435 2.67851 5.65417 2.95833 5.99935 2.95833V1.70833ZM11.3327 2.95833C11.6779 2.95833 11.9577 2.67851 11.9577 2.33333C11.9577 1.98816 11.6779 1.70833 11.3327 1.70833V2.95833ZM5.99935 11.0417C5.65417 11.0417 5.37435 11.3215 5.37435 11.6667C5.37435 12.0118 5.65417 12.2917 5.99935 12.2917V11.0417ZM11.3327 12.2917C11.6779 12.2917 11.9577 12.0118 11.9577 11.6667C11.9577 11.3215 11.6779 11.0417 11.3327 11.0417V12.2917ZM5.99935 7.625C6.34453 7.625 6.62435 7.34518 6.62435 7C6.62435 6.65482 6.34453 6.375 5.99935 6.375V7.625ZM0.666016 6.375C0.320838 6.375 0.0410157 6.65482 0.0410156 7C0.0410156 7.34518 0.320838 7.625 0.666016 7.625L0.666016 6.375ZM5.99935 2.95833L11.3327 2.95833V1.70833L5.99935 1.70833V2.95833ZM5.99935 12.2917H11.3327V11.0417H5.99935V12.2917ZM5.99935 6.375L0.666016 6.375L0.666016 7.625L5.99935 7.625V6.375ZM0.0410156 2.33333C0.0410156 3.41489 0.917791 4.29167 1.99935 4.29167V3.04167C1.60815 3.04167 1.29102 2.72454 1.29102 2.33333H0.0410156ZM1.99935 4.29167C3.08091 4.29167 3.95768 3.41489 3.95768 2.33333H2.70768C2.70768 2.72454 2.39055 3.04167 1.99935 3.04167V4.29167ZM3.95768 2.33333C3.95768 1.25178 3.08091 0.375 1.99935 0.375V1.625C2.39055 1.625 2.70768 1.94213 2.70768 2.33333H3.95768ZM1.99935 0.375C0.917791 0.375 0.0410156 1.25178 0.0410156 2.33333H1.29102C1.29102 1.94213 1.60815 1.625 1.99935 1.625V0.375ZM0.0410156 11.6667C0.0410156 12.7482 0.917791 13.625 1.99935 13.625V12.375C1.60815 12.375 1.29102 12.0579 1.29102 11.6667H0.0410156ZM1.99935 13.625C3.08091 13.625 3.95768 12.7482 3.95768 11.6667H2.70768C2.70768 12.0579 2.39055 12.375 1.99935 12.375V13.625ZM3.95768 11.6667C3.95768 10.5851 3.08091 9.70833 1.99935 9.70833V10.9583C2.39055 10.9583 2.70768 11.2755 2.70768 11.6667H3.95768ZM1.99935 9.70833C0.917791 9.70833 0.0410156 10.5851 0.0410156 11.6667H1.29102C1.29102 11.2755 1.60815 10.9583 1.99935 10.9583V9.70833ZM11.9577 7C11.9577 5.91844 11.0809 5.04167 9.99935 5.04167V6.29167C10.3906 6.29167 10.7077 6.6088 10.7077 7L11.9577 7ZM9.99935 5.04167C8.91779 5.04167 8.04102 5.91844 8.04102 7L9.29102 7C9.29102 6.6088 9.60815 6.29167 9.99935 6.29167V5.04167ZM8.04102 7C8.04102 8.08156 8.91779 8.95833 9.99935 8.95833V7.70833C9.60815 7.70833 9.29102 7.3912 9.29102 7L8.04102 7ZM9.99935 8.95833C11.0809 8.95833 11.9577 8.08156 11.9577 7L10.7077 7C10.7077 7.3912 10.3906 7.70833 9.99935 7.70833V8.95833Z" fill="#4B4B4D"/>
</g>
</svg>
