<svg width="24" height="24" viewBox="0 0 24 24" fill="none" xmlns="http://www.w3.org/2000/svg">
<g id="Group 86">
<path id="Vector" d="M11.9998 9.81812V14.4653H18.4578C18.1743 15.9599 17.3233 17.2254 16.0469 18.0762L19.9414 21.0981C22.2105 19.0037 23.5196 15.9272 23.5196 12.2727C23.5196 11.4219 23.4433 10.6036 23.3014 9.8182L11.9998 9.81812Z" fill="#4285F4"/>
<path id="Vector_2" d="M5.27473 14.2841L4.39637 14.9564L1.28723 17.3782C3.26177 21.2945 7.30874 24 11.9996 24C15.2395 24 17.9558 22.9309 19.9413 21.0982L16.0468 18.0764C14.9777 18.7964 13.614 19.2328 11.9996 19.2328C8.87963 19.2328 6.2288 17.1274 5.27963 14.2909L5.27473 14.2841Z" fill="#34A853"/>
<path id="Vector_3" d="M1.28717 6.6217C0.469041 8.23621 0 10.058 0 11.9998C0 13.9416 0.469041 15.7635 1.28717 17.3779C1.28717 17.3887 5.27996 14.2797 5.27996 14.2797C5.03997 13.5597 4.89811 12.7961 4.89811 11.9997C4.89811 11.2032 5.03997 10.4396 5.27996 9.71963L1.28717 6.6217Z" fill="#FBBC05"/>
<path id="Vector_4" d="M11.9998 4.77817C13.7672 4.77817 15.338 5.38906 16.5926 6.56726L20.0289 3.13094C17.9453 1.18916 15.2399 0 11.9998 0C7.30898 0 3.26177 2.69453 1.28723 6.62182L5.2799 9.72003C6.22893 6.88361 8.87987 4.77817 11.9998 4.77817Z" fill="#EA4335"/>
</g>
</svg>
