<svg width="24" height="23" viewBox="0 0 24 23" fill="none" xmlns="http://www.w3.org/2000/svg">
<g id="Home 2">
<path id="Vector" d="M2.76647 14.8197L3.47976 14.5879L2.76647 14.8197ZM1.65596 8.65157L2.37727 8.85703L1.65596 8.65157ZM6.29318 3.96556L5.85234 3.3588L6.29318 3.96556ZM1.76925 8.30291L2.47357 8.56067L1.76925 8.30291ZM5.79015 20.678L5.37185 21.3005L5.79015 20.678ZM5.49356 20.4625L5.03078 21.0527L5.49356 20.4625ZM21.2326 14.8197L20.5193 14.5879L21.2326 14.8197ZM18.5055 20.4625L18.9683 21.0527L18.5055 20.4625ZM18.2089 20.678L18.6272 21.3005L18.2089 20.678ZM17.7059 3.96556L18.1467 3.3588L17.7059 3.96556ZM22.2298 8.30291L21.5255 8.56067L22.2298 8.30291ZM22.3431 8.65157L21.6218 8.85703L22.3431 8.65157ZM12.1828 1.00336L12.1553 1.75286L12.1828 1.00336ZM11.8162 1.00336L11.8437 1.75286L11.8162 1.00336ZM9.99952 16.0697C9.5853 16.0697 9.24952 16.4054 9.24952 16.8197C9.24952 17.2339 9.5853 17.5697 9.99952 17.5697V16.0697ZM13.9995 17.5697C14.4137 17.5697 14.7495 17.2339 14.7495 16.8197C14.7495 16.4054 14.4137 16.0697 13.9995 16.0697V17.5697ZM3.47976 14.5879C2.96541 13.0049 2.59902 11.874 2.40676 10.9558C2.21812 10.055 2.21405 9.43007 2.37727 8.85703L0.934654 8.44611C0.680434 9.33861 0.722296 10.2303 0.938607 11.2633C1.15131 12.2791 1.54889 13.4994 2.05317 15.0514L3.47976 14.5879ZM5.85234 3.3588C4.53212 4.31799 3.49316 5.07158 2.72402 5.76835C1.94183 6.47693 1.38386 7.17368 1.06493 8.04515L2.47357 8.56067C2.67834 8.00112 3.04893 7.49798 3.73108 6.88002C4.42627 6.25026 5.38742 5.55068 6.73402 4.57232L5.85234 3.3588ZM2.37727 8.85703C2.40574 8.7571 2.43786 8.65824 2.47357 8.56067L1.06493 8.04515C1.01662 8.17717 0.973164 8.31091 0.934654 8.44611L2.37727 8.85703ZM11.9995 20.7779C10.335 20.7779 9.14624 20.7768 8.21366 20.676C7.29856 20.577 6.70301 20.3878 6.20845 20.0555L5.37185 21.3005C6.14211 21.8181 7.00306 22.0538 8.05235 22.1673C9.08415 22.2789 10.3676 22.2779 11.9995 22.2779V20.7779ZM2.05317 15.0514C2.55745 16.6034 2.95311 17.8244 3.37809 18.7712C3.81028 19.7341 4.30051 20.4801 5.03078 21.0527L5.95635 19.8723C5.48747 19.5046 5.12347 18.9967 4.74656 18.157C4.36244 17.3012 3.99411 16.1709 3.47976 14.5879L2.05317 15.0514ZM6.20845 20.0555C6.1222 19.9975 6.03811 19.9364 5.95635 19.8723L5.03078 21.0527C5.1414 21.1394 5.25517 21.2221 5.37185 21.3005L6.20845 20.0555ZM20.5193 14.5879C20.0049 16.1709 19.6366 17.3012 19.2525 18.157C18.8756 18.9967 18.5116 19.5046 18.0427 19.8723L18.9683 21.0527C19.6985 20.4801 20.1888 19.7341 20.6209 18.7712C21.0459 17.8244 21.4416 16.6034 21.9459 15.0514L20.5193 14.5879ZM11.9995 22.2779C13.6314 22.2779 14.9149 22.2789 15.9467 22.1673C16.996 22.0538 17.8569 21.8181 18.6272 21.3005L17.7906 20.0555C17.296 20.3878 16.7005 20.577 15.7854 20.676C14.8528 20.7768 13.664 20.7779 11.9995 20.7779V22.2779ZM18.0427 19.8723C17.9609 19.9364 17.8768 19.9975 17.7906 20.0555L18.6272 21.3005C18.7439 21.2221 18.8576 21.1394 18.9683 21.0527L18.0427 19.8723ZM17.265 4.57232C18.6116 5.55068 19.5728 6.25026 20.268 6.88002C20.9501 7.49798 21.3207 8.00112 21.5255 8.56067L22.9341 8.04515C22.6152 7.17368 22.0572 6.47693 21.275 5.76835C20.5059 5.07158 19.4669 4.31799 18.1467 3.3588L17.265 4.57232ZM21.9459 15.0514C22.4501 13.4994 22.8477 12.2791 23.0604 11.2633C23.2767 10.2303 23.3186 9.33861 23.0644 8.44611L21.6218 8.85703C21.785 9.43007 21.7809 10.055 21.5923 10.9558C21.4 11.874 21.0336 13.0049 20.5193 14.5879L21.9459 15.0514ZM21.5255 8.56067C21.5612 8.65824 21.5933 8.75709 21.6218 8.85703L23.0644 8.44611C23.0259 8.31091 22.9824 8.17717 22.9341 8.04515L21.5255 8.56067ZM18.1467 3.3588C16.8265 2.3996 15.7887 1.64436 14.8884 1.12818C13.9728 0.603234 13.1377 0.287886 12.2103 0.253865L12.1553 1.75286C12.7508 1.7747 13.3438 1.97167 14.1423 2.42948C14.9561 2.89603 15.9184 3.59396 17.265 4.57232L18.1467 3.3588ZM6.73402 4.57232C8.08061 3.59396 9.04296 2.89603 9.85673 2.42948C10.6552 1.97167 11.2483 1.7747 11.8437 1.75286L11.7887 0.253865C10.8613 0.287886 10.0263 0.603234 9.11066 1.12818C8.21032 1.64436 7.17256 2.3996 5.85234 3.3588L6.73402 4.57232ZM12.2103 0.253865C12.0698 0.248712 11.9292 0.248712 11.7887 0.253865L11.8437 1.75286C11.9475 1.74905 12.0515 1.74905 12.1553 1.75286L12.2103 0.253865ZM9.99952 17.5697H13.9995V16.0697H9.99952V17.5697Z" fill="#4B4B4D"/>
</g>
</svg>
