<svg width="19" height="18" viewBox="0 0 19 18" fill="none" xmlns="http://www.w3.org/2000/svg">
<path id="Vector" d="M4.4838 4.69233C4.00868 4.69233 3.60414 4.52383 3.27018 4.18683C2.93621 3.84982 2.76923 3.44469 2.76923 2.97146C2.76923 2.49821 2.93621 2.093 3.27018 1.75583C3.60414 1.41865 4.00868 1.25006 4.4838 1.25006C4.95892 1.25006 5.36564 1.41857 5.70398 1.75558C6.04233 2.09258 6.2115 2.4977 6.2115 2.97093C6.2115 3.44418 6.04233 3.84939 5.70398 4.18656C5.36564 4.52374 4.95892 4.69233 4.4838 4.69233ZM1.8077 18C1.31058 18 0.885025 17.823 0.531025 17.469C0.177008 17.115 0 16.6894 0 16.1923V9.71156C0 9.45547 0.0866251 9.24082 0.259875 9.06758C0.433108 8.89435 0.647767 8.80773 0.90385 8.80773H2.90385V7.63461C2.90385 7.11667 3.0807 6.68271 3.4344 6.33271C3.7881 5.98272 4.22342 5.80773 4.74035 5.80773C5.0224 5.80773 5.28586 5.86317 5.53073 5.97406C5.77559 6.08496 5.99547 6.24105 6.19035 6.44233L7.55188 7.95386C7.69419 8.12566 7.84945 8.28111 8.01765 8.42021C8.18587 8.55932 8.36459 8.6885 8.55383 8.80773H18.0961C18.3522 8.80773 18.5668 8.89435 18.7401 9.06758C18.9133 9.24082 19 9.45547 19 9.71156V16.1923C19 16.6894 18.8229 17.115 18.4689 17.469C18.1149 17.823 17.6894 18 17.1923 18H1.8077ZM16.5446 6.61541C16.3418 6.61541 16.1737 6.54457 16.0404 6.40291C15.907 6.26124 15.8455 6.08913 15.8558 5.88658C15.8788 5.49427 15.8147 5.11797 15.6635 4.75771C15.5122 4.39746 15.2987 4.07951 15.0231 3.80386C14.609 3.38976 14.2978 2.91732 14.0894 2.38656C13.8811 1.85579 13.7782 1.30836 13.7808 0.744257C13.7808 0.540707 13.8473 0.365781 13.9804 0.219481C14.1135 0.0731809 14.2814 3.05176e-05 14.4842 3.05176e-05C14.687 3.05176e-05 14.8577 0.0750305 14.9961 0.225031C15.1346 0.375031 15.1987 0.551315 15.1884 0.753882C15.1653 1.12568 15.2211 1.49011 15.3557 1.84716C15.4903 2.20421 15.6936 2.50902 15.9654 2.76158C16.3795 3.17568 16.6974 3.64971 16.9192 4.18368C17.141 4.71766 17.2506 5.27504 17.248 5.85581C17.248 6.07102 17.1815 6.25142 17.0484 6.39701C16.9153 6.54261 16.7474 6.61541 16.5446 6.61541ZM12.535 6.61541C12.3322 6.61541 12.1641 6.54457 12.0308 6.40291C11.8974 6.26124 11.8359 6.08913 11.8462 5.88658C11.8692 5.48785 11.8051 5.10996 11.6538 4.75291C11.5026 4.39586 11.2859 4.07951 11.0038 3.80386C10.5897 3.38976 10.2801 2.91732 10.075 2.38656C9.86987 1.85579 9.76858 1.30836 9.77115 0.744257C9.77115 0.540707 9.83769 0.365781 9.97078 0.219481C10.1039 0.0731809 10.2718 3.05176e-05 10.4746 3.05176e-05C10.6774 3.05176e-05 10.8455 0.0708639 10.9788 0.212531C11.1121 0.354197 11.1737 0.526315 11.1634 0.728882C11.1403 1.11093 11.1977 1.47791 11.3355 1.82983C11.4734 2.18176 11.6769 2.49235 11.9461 2.76158C12.3666 3.17568 12.6878 3.64971 12.9096 4.18368C13.1314 4.71766 13.241 5.27504 13.2384 5.85581C13.2384 6.07102 13.1719 6.25142 13.0388 6.39701C12.9057 6.54261 12.7378 6.61541 12.535 6.61541ZM14.1827 16.5H16.6154V10.3077H14.1827V16.5ZM10.25 16.5H12.6827V10.3077H10.25V16.5ZM6.31728 16.5H8.75V10.3077H6.31728V16.5ZM2.38458 16.5H4.8173V10.3077H2.38458V16.5Z" fill="#4B4B4D"/>
</svg>
