<svg width="47" height="18" viewBox="0 0 47 18" fill="none" xmlns="http://www.w3.org/2000/svg">
<g id="idme-wallet-copy-2">
<path id="Shape" d="M2.1 0H1.3C0.4 0 0 0.3 0 0.9V16.1C0 16.7 0.4 17 1.3 17H2C2.9 17 3.3 16.7 3.3 16.1V0.9C3.4 0.3 2.9 0 2.1 0Z" fill="#2E3F51"/>
<path id="Shape_1_" d="M16.1 15.2C16.1 13.4 17.3 11.8 19 11.3C19.2 10.5 19.3 9.5 19.3 8.5C19.3 3 16.4 0 11.2 0H5.7C4.9 0 4.5 0.3 4.5 1.1V15.9C4.5 16.6 4.9 17 5.6 17H11.1C13.1 17 14.7 16.6 16 15.7C16.1 15.6 16.1 15.4 16.1 15.2ZM11.2 13.6H8.7V3.4H11.2C14.4 3.4 15.1 6.2 15.1 8.5C15.1 10.8 14.4 13.6 11.2 13.6Z" fill="#2E3F51"/>
<path id="Oval" d="M19.8 17C20.7389 17 21.5 16.2389 21.5 15.3C21.5 14.3611 20.7389 13.6 19.8 13.6C18.8611 13.6 18.1 14.3611 18.1 15.3C18.1 16.2389 18.8611 17 19.8 17Z" fill="#08833D"/>
<path id="Shape_2_" d="M46.2 12.4C46.1 12.4 46.1 12.4 46 12.4C45.7 12.4 45.6 12.5 45.4 12.7C45.3 12.8 45.2 13 45.1 13.2C44.8 13.8 44.4 14.4 43.9 14.8C43.2 15.4 42.2 15.7 41.4 15.5C40.9 15.4 40.6 15 40.3 14.8C39.9 14.3 39.7 13.5 39.8 12.7C41 12.6 44.7 12 45.1 9.20002C45.2 8.70002 45 8.10002 44.7 7.70002C44.3 7.20002 43.5 6.90002 42.7 6.90002C40.2 6.90002 37.8 9.50002 37.5 12.5C37.4 13.3 37.5 14.1 37.8 14.8C37.6 15 37.4 15.1 37.2 15.2C37 15.3 36.8 15.3 36.7 15.3C36.5 15.2 36.5 15 36.4 14.9C36.3 14.4 36.4 13.7 36.6 13.1C36.7 12.7 36.8 12.3 36.9 12C37.2 10.9 37.5 9.80002 37.4 8.70002C37.3 7.70002 36.6 7.00002 35.5 7.00002C34 7.00002 33 8.10002 32.4 9.00002C32.4 8.30002 32.2 7.80002 31.9 7.50002C31.6 7.20002 31.2 7.00002 30.6 7.00002C29.1 7.00002 28.2 8.00002 27.5 8.90002C27.5 8.80002 27.5 8.70002 27.5 8.60002C27.5 8.20002 27.6 7.70002 27.2 7.30002C27 7.10002 26.8 7.00002 26.4 7.00002C26.1 7.00002 26 7.00002 25.7 7.10002C25.7 7.10002 25.4 7.20002 25.3 7.30002C25.1 7.50002 25.2 7.80002 25.2 8.00002C25.2 8.00002 25.2 8.00002 25.2 8.10002C25.2 8.20002 25.2 8.40002 25.2 8.60002C25.1 9.70002 24.9 10.8 24.8 11.7C24.7 12.2 24.6 12.7 24.5 13.2C24.2 14.3 24 15.5 23.9 16.6C23.9 16.7 23.9 16.8 24 16.9C24.1 17 24.2 17 24.3 17H24.4C25.2 17 26 17 26.2 16.5C26.4 16 26.5 15.4 26.6 14.8L26.7 14.5C26.9 13.2 27.1 12.3 27.6 11.2C27.8 10.6 28.2 10.1 28.5 9.70002C28.9 9.20002 29.3 8.70002 29.8 8.70002C30 8.70002 30.1 8.80002 30.2 8.90002C30.6 9.50002 30.1 11.5 29.8 12.4C29.7 12.6 29.7 12.7 29.7 12.9L29.5 13.6C29.2 14.6 29 15.5 28.9 16.6C28.9 16.7 28.9 16.8 28.9 16.9V17L29 17.1C29.2 17.3 30.7 17 30.7 17C31.2 16.8 31.4 16.3 31.4 16.1C31.5 15.6 31.6 15.2 31.7 14.8C31.9 14 32 13.1 32.3 12.3C32.8 10.7 33.5 9.60002 34.2 9.00002C34.5 8.80002 34.9 8.70002 35 8.90002C35.3 9.20002 35.1 10.2 35 10.6C34.9 11.1 34.8 11.7 34.6 12.3C34.5 12.6 34.4 13 34.3 13.4C34.1 14.5 33.9 15.8 34.5 16.6C34.8 17 35.3 17.2 35.9 17.2C36.6 17.2 37.2 17 37.9 16.5C38.1 16.4 38.3 16.2 38.5 16C39.3 16.9 40.1 17.3 41.4 17.3C44.2 17.3 45.5 15.4 46.3 14C46.4 13.8 46.5 13.6 46.6 13.4C46.5 12.8 46.4 12.5 46.2 12.4ZM42.7 8.80002C42.7 8.90002 42.7 8.90002 42.7 8.90002C42.7 8.90002 42.7 9.00002 42.7 9.10002C42.7 9.30002 42.6 9.60002 42.6 9.80002C42.2 11.1 41.1 11.4 40.1 11.4C40.2 10.8 40.4 10.3 40.7 9.80002C41.2 8.80002 41.8 8.20002 42.3 8.20002C42.4 8.20002 42.4 8.20002 42.4 8.20002C42.4 8.20002 42.4 8.20002 42.5 8.20002C42.5 8.20002 42.5 8.20002 42.6 8.30002C42.6 8.30002 42.6 8.30002 42.6 8.40002C42.6 8.40002 42.6 8.40002 42.6 8.50002C42.6 8.50002 42.6 8.50002 42.6 8.60002V8.70002C42.7 8.70002 42.7 8.70002 42.7 8.80002Z" fill="#2E3F51"/>
</g>
</svg>
