<svg width="16" height="15" viewBox="0 0 16 15" fill="none" xmlns="http://www.w3.org/2000/svg">
<g id="Information Circle">
<g id="Vector">
<path d="M8.49967 6.55469C8.49967 6.27855 8.27582 6.05469 7.99967 6.05469C7.72353 6.05469 7.49967 6.27855 7.49967 6.55469V10.5547C7.49967 10.8308 7.72353 11.0547 7.99967 11.0547C8.27582 11.0547 8.49967 10.8308 8.49967 10.5547V6.55469Z" fill="#4B4B4D"/>
<path fill-rule="evenodd" clip-rule="evenodd" d="M7.99967 0.0546875C4.04163 0.0546875 0.833008 3.26331 0.833008 7.22135C0.833008 11.1794 4.04163 14.388 7.99967 14.388C11.9577 14.388 15.1663 11.1794 15.1663 7.22135C15.1663 3.26331 11.9577 0.0546875 7.99967 0.0546875ZM1.83301 7.22135C1.83301 3.8156 4.59392 1.05469 7.99967 1.05469C11.4054 1.05469 14.1663 3.8156 14.1663 7.22135C14.1663 10.6271 11.4054 13.388 7.99967 13.388C4.59392 13.388 1.83301 10.6271 1.83301 7.22135Z" fill="#4B4B4D"/>
<path d="M8.66634 4.55469C8.66634 4.92288 8.36786 5.22135 7.99967 5.22135C7.63148 5.22135 7.33301 4.92288 7.33301 4.55469C7.33301 4.1865 7.63148 3.88802 7.99967 3.88802C8.36786 3.88802 8.66634 4.1865 8.66634 4.55469Z" fill="#4B4B4D"/>
</g>
</g>
</svg>
