<svg width="16" height="11" viewBox="0 0 16 11" fill="none" xmlns="http://www.w3.org/2000/svg">
<g id="Left 1">
<path id="Vector" d="M5.10728 1.65875C5.35245 1.41577 5.35421 1.02004 5.11123 0.774878C4.86824 0.529714 4.47252 0.527948 4.22735 0.770935L2.73174 2.25326C2.16843 2.81154 1.70804 3.26783 1.38153 3.67439C1.04201 4.09716 0.79623 4.52628 0.730575 5.04137C0.701787 5.26723 0.701787 5.49579 0.730575 5.72165C0.79623 6.23674 1.04201 6.66586 1.38153 7.08863C1.70804 7.49519 2.16843 7.95148 2.73175 8.50977L4.22735 9.99209C4.47252 10.2351 4.86824 10.2333 5.11123 9.98814C5.35421 9.74298 5.35245 9.34725 5.10728 9.10427L3.63814 7.64818C3.0419 7.05723 2.6329 6.65053 2.35615 6.30592C2.26621 6.19393 2.19603 6.09534 2.14155 6.00651H14.6673C15.0125 6.00651 15.2923 5.72669 15.2923 5.38151C15.2923 5.03633 15.0125 4.75651 14.6673 4.75651H2.14155C2.19603 4.66768 2.26621 4.56909 2.35615 4.4571C2.6329 4.11249 3.0419 3.70579 3.63814 3.11484L5.10728 1.65875Z" fill="#444444"/>
</g>
</svg>
