<svg width="16" height="20" viewBox="0 0 16 20" fill="none" xmlns="http://www.w3.org/2000/svg">
<g id="Location">
<path id="Vector" d="M10.342 16.9848L9.84499 16.5951L10.342 16.9848ZM5.65853 16.9848L5.16155 17.3746L5.65853 16.9848ZM8.00025 18.9259V18.2943V18.9259ZM14.1055 8.48649C14.1055 9.51933 13.5669 10.9014 12.7192 12.4C11.8855 13.874 10.808 15.367 9.84499 16.5951L10.839 17.3746C11.821 16.1223 12.9411 14.5734 13.8187 13.0219C14.6823 11.4951 15.3687 9.86815 15.3687 8.48649H14.1055ZM6.15552 16.5951C5.19249 15.367 4.11502 13.874 3.28131 12.4C2.43362 10.9014 1.89499 9.51933 1.89499 8.48649H0.631834C0.631834 9.86815 1.31824 11.4951 2.18185 13.0219C3.05943 14.5734 4.17952 16.1223 5.16155 17.3746L6.15552 16.5951ZM1.89499 8.48649C1.89499 4.78714 4.67123 1.86864 8.00025 1.86864V0.605482C3.88797 0.605482 0.631834 4.17834 0.631834 8.48649H1.89499ZM8.00025 1.86864C11.3293 1.86864 14.1055 4.78714 14.1055 8.48649H15.3687C15.3687 4.17834 12.1125 0.605482 8.00025 0.605482V1.86864ZM9.84499 16.5951C9.32376 17.2598 8.98057 17.694 8.67325 17.9731C8.39297 18.2277 8.20588 18.2943 8.00025 18.2943V19.5575C8.6142 19.5575 9.09058 19.3005 9.52258 18.9081C9.92753 18.5403 10.3454 18.0039 10.839 17.3746L9.84499 16.5951ZM5.16155 17.3746C5.65508 18.0039 6.07298 18.5403 6.47793 18.9081C6.90993 19.3005 7.38631 19.5575 8.00025 19.5575V18.2943C7.79463 18.2943 7.60754 18.2277 7.32726 17.9731C7.01994 17.694 6.67675 17.2598 6.15552 16.5951L5.16155 17.3746ZM4.84236 8.81601C4.84236 10.5601 6.2562 11.9739 8.00025 11.9739V10.7107C6.95382 10.7107 6.10552 9.86244 6.10552 8.81601H4.84236ZM8.00025 11.9739C9.74431 11.9739 11.1581 10.5601 11.1581 8.81601H9.89499C9.89499 9.86244 9.04669 10.7107 8.00025 10.7107V11.9739ZM11.1581 8.81601C11.1581 7.07195 9.74431 5.65811 8.00025 5.65811V6.92127C9.04669 6.92127 9.89499 7.76957 9.89499 8.81601H11.1581ZM8.00025 5.65811C6.2562 5.65811 4.84236 7.07195 4.84236 8.81601H6.10552C6.10552 7.76957 6.95382 6.92127 8.00025 6.92127V5.65811Z" fill="#747474"/>
</g>
</svg>
