<svg width="33" height="36" viewBox="0 0 33 36" fill="none" xmlns="http://www.w3.org/2000/svg">
<path d="M9.83333 13.8281C9.3731 13.8281 9 14.2012 9 14.6615C9 15.1217 9.3731 15.4948 9.83333 15.4948V13.8281ZM23.1667 15.4948C23.6269 15.4948 24 15.1217 24 14.6615C24 14.2012 23.6269 13.8281 23.1667 13.8281V15.4948ZM9.83333 20.4948C9.3731 20.4948 9 20.8679 9 21.3281C9 21.7884 9.3731 22.1615 9.83333 22.1615V20.4948ZM23.1667 22.1615C23.6269 22.1615 24 21.7884 24 21.3281C24 20.8679 23.6269 20.4948 23.1667 20.4948V22.1615ZM9.83333 27.1615C9.3731 27.1615 9 27.5346 9 27.9948C9 28.455 9.3731 28.8281 9.83333 28.8281V27.1615ZM14.8333 28.8281C15.2936 28.8281 15.6667 28.455 15.6667 27.9948C15.6667 27.5346 15.2936 27.1615 14.8333 27.1615V28.8281ZM4.93512 33.0699L5.42494 32.3958L4.93512 33.0699ZM3.09152 31.2263L3.76571 30.7365L3.09152 31.2263ZM29.9085 31.2263L29.2343 30.7365L29.9085 31.2263ZM28.0649 33.0699L27.5751 32.3958L28.0649 33.0699ZM28.0649 2.91965L28.5547 2.24547L28.0649 2.91965ZM29.9085 4.76325L29.2343 5.25307L29.9085 4.76325ZM4.93512 2.91965L5.42494 3.59383L4.93512 2.91965ZM3.09152 4.76325L3.76571 5.25307L3.09152 4.76325ZM18.4102 8.98697L18.5406 9.81005L18.5406 9.81005L18.4102 8.98697ZM15.803 8.98697L15.6726 9.81005L15.6726 9.81005L15.803 8.98697ZM9.83333 15.4948H23.1667V13.8281H9.83333V15.4948ZM9.83333 22.1615H23.1667V20.4948H9.83333V22.1615ZM9.83333 28.8281H14.8333V27.1615H9.83333V28.8281ZM30.6667 16.3281V19.6615H32.3333V16.3281H30.6667ZM2.33333 19.6615V16.3281H0.666667V19.6615H2.33333ZM16.5 33.8281C13.3567 33.8281 11.0661 33.827 9.28519 33.634C7.51989 33.4428 6.35448 33.0711 5.42494 32.3958L4.4453 33.7441C5.70631 34.6603 7.19856 35.0844 9.10567 35.291C10.9972 35.4959 13.3938 35.4948 16.5 35.4948V33.8281ZM0.666667 19.6615C0.666667 22.7677 0.665523 25.1643 0.870456 27.0558C1.07708 28.9629 1.50117 30.4552 2.41734 31.7162L3.76571 30.7365C3.09036 29.807 2.71868 28.6416 2.52743 26.8763C2.33448 25.0954 2.33333 22.8048 2.33333 19.6615H0.666667ZM5.42494 32.3958C4.78823 31.9332 4.2283 31.3732 3.76571 30.7365L2.41734 31.7162C2.98274 32.4944 3.6671 33.1787 4.4453 33.7441L5.42494 32.3958ZM30.6667 19.6615C30.6667 22.8048 30.6655 25.0954 30.4726 26.8763C30.2813 28.6416 29.9096 29.807 29.2343 30.7365L30.5827 31.7162C31.4988 30.4552 31.9229 28.9629 32.1295 27.0558C32.3345 25.1643 32.3333 22.7677 32.3333 19.6615H30.6667ZM16.5 35.4948C19.6062 35.4948 22.0028 35.4959 23.8943 35.291C25.8014 35.0844 27.2937 34.6603 28.5547 33.7441L27.5751 32.3958C26.6455 33.0711 25.4801 33.4428 23.7148 33.634C21.9339 33.827 19.6433 33.8281 16.5 33.8281V35.4948ZM29.2343 30.7365C28.7717 31.3732 28.2118 31.9332 27.5751 32.3958L28.5547 33.7441C29.3329 33.1787 30.0173 32.4944 30.5827 31.7162L29.2343 30.7365ZM32.3333 16.3281C32.3333 13.2219 32.3345 10.8253 32.1295 8.9338C31.9229 7.02669 31.4988 5.53443 30.5827 4.27343L29.2343 5.25307C29.9096 6.18261 30.2813 7.34802 30.4726 9.11332C30.6655 10.8942 30.6667 13.1848 30.6667 16.3281H32.3333ZM27.5751 3.59383C28.2118 4.05643 28.7717 4.61636 29.2343 5.25307L30.5827 4.27343C30.0173 3.49522 29.3329 2.81087 28.5547 2.24547L27.5751 3.59383ZM2.33333 16.3281C2.33333 13.1848 2.33448 10.8942 2.52743 9.11332C2.71868 7.34802 3.09036 6.18261 3.76571 5.25307L2.41734 4.27343C1.50117 5.53443 1.07708 7.02669 0.870456 8.9338C0.665523 10.8253 0.666667 13.2219 0.666667 16.3281H2.33333ZM4.4453 2.24547C3.6671 2.81087 2.98274 3.49523 2.41734 4.27343L3.76571 5.25307C4.2283 4.61636 4.78823 4.05643 5.42494 3.59383L4.4453 2.24547ZM18.2799 8.1639C17.5025 8.28702 16.7107 8.28702 15.9334 8.1639L15.6726 9.81005C16.6227 9.96052 17.5905 9.96052 18.5406 9.81005L18.2799 8.1639ZM26.6451 1.82425C24.5832 3.88466 23.0583 5.38722 21.7338 6.4303C20.4217 7.46361 19.3729 7.99078 18.2799 8.1639L18.5406 9.81005C20.0234 9.57519 21.3349 8.86591 22.765 7.73967C24.1827 6.62321 25.7818 5.04313 27.8232 3.00318L26.6451 1.82425ZM16.5 2.16146C19.2632 2.16146 21.3708 2.16205 23.0575 2.2946C24.7414 2.42693 25.9241 2.68642 26.8589 3.1578L27.6093 1.66963C26.3913 1.05542 24.9576 0.772115 23.188 0.633052C21.4212 0.494204 19.2381 0.494792 16.5 0.494792V2.16146ZM26.8589 3.1578C27.1125 3.28565 27.3497 3.43012 27.5751 3.59383L28.5547 2.24547C28.2555 2.02808 27.9414 1.83708 27.6093 1.66963L26.8589 3.1578ZM6.03112 2.64437C8.18826 4.80141 9.85819 6.46786 11.3244 7.64134C12.8029 8.82466 14.1472 9.56844 15.6726 9.81005L15.9334 8.1639C14.8089 7.9858 13.7314 7.43309 12.3658 6.34013C10.988 5.23733 9.39156 3.6477 7.20961 1.46584L6.03112 2.64437ZM16.5 0.494792C14.1019 0.494792 12.132 0.494495 10.4983 0.586997C8.8654 0.679453 7.50942 0.866799 6.34856 1.26735L6.89218 2.84286C7.83824 2.51643 9.01557 2.34029 10.5925 2.251C12.1686 2.16176 14.085 2.16146 16.5 2.16146V0.494792ZM6.34856 1.26735C5.64938 1.50859 5.02165 1.82673 4.4453 2.24547L5.42494 3.59383C5.85563 3.28092 6.33366 3.03557 6.89218 2.84286L6.34856 1.26735Z" fill="#747474"/>
</svg>
