<svg width="22" height="21" viewBox="0 0 22 21" fill="none" xmlns="http://www.w3.org/2000/svg">
<g id="Message 7">
<path id="Vector" d="M10.9192 17.9506L11.3551 18.5609L10.9192 17.9506ZM10.9722 17.9128L10.5402 17.2997L10.9722 17.9128ZM13.8203 17.0001L13.8251 17.7501L13.8203 17.0001ZM6.6459 18.5103L7.34226 18.7888L6.6459 18.5103ZM8.30848 19.8154L7.87255 19.2051H7.87255L8.30848 19.8154ZM21.048 13.4069L21.7677 13.6179L21.048 13.4069ZM17.6569 16.798L17.8679 17.5177L17.6569 16.798ZM3.98005 1.54497L4.32054 2.21322L3.98005 1.54497ZM1.79497 3.73005L2.46322 4.07054L1.79497 3.73005ZM18.52 1.54497L18.1795 2.21322L18.52 1.54497ZM20.705 3.73005L20.0368 4.07054L20.705 3.73005ZM7.25 10.75C6.83579 10.75 6.5 11.0858 6.5 11.5C6.5 11.9142 6.83579 12.25 7.25 12.25V10.75ZM15.25 12.25C15.6642 12.25 16 11.9142 16 11.5C16 11.0858 15.6642 10.75 15.25 10.75V12.25ZM7.25 6.25C6.83579 6.25 6.5 6.58579 6.5 7C6.5 7.41421 6.83579 7.75 7.25 7.75V6.25ZM15.25 7.75C15.6642 7.75 16 7.41421 16 7C16 6.58579 15.6642 6.25 15.25 6.25V7.75ZM13.25 0.25H9.25V1.75H13.25V0.25ZM0.5 9V13.2283H2V9H0.5ZM22 10.1842V9H20.5V10.1842H22ZM5.02166 17.75H5.62341V16.25H5.02166V17.75ZM8.74441 20.4257L11.3551 18.5609L10.4833 17.3403L7.87255 19.2051L8.74441 20.4257ZM13.8854 17.75H14.4342V16.25H13.8854V17.75ZM11.3551 18.5609C11.3825 18.5413 11.3936 18.5334 11.4043 18.5259L10.5402 17.2997C10.5247 17.3107 10.5092 17.3218 10.4833 17.3403L11.3551 18.5609ZM13.8854 16.25C13.8536 16.25 13.8345 16.25 13.8155 16.2501L13.8251 17.7501C13.8382 17.75 13.8518 17.75 13.8854 17.75V16.25ZM11.4043 18.5259C12.1132 18.0264 12.9579 17.7556 13.8251 17.7501L13.8155 16.2501C12.6422 16.2576 11.4993 16.6239 10.5402 17.2997L11.4043 18.5259ZM5.62341 17.75C5.87191 17.75 6.04183 18.001 5.94954 18.2317L7.34226 18.7888C7.82867 17.5728 6.93311 16.25 5.62341 16.25V17.75ZM5.94954 18.2317C5.26288 19.9484 7.2399 21.5003 8.74441 20.4257L7.87255 19.2051C7.58709 19.409 7.21197 19.1145 7.34226 18.7888L5.94954 18.2317ZM20.5 10.1842C20.5 11.9261 20.4924 12.6363 20.3283 13.1958L21.7677 13.6179C22.0076 12.7996 22 11.8206 22 10.1842H20.5ZM14.4342 17.75C16.0706 17.75 17.0496 17.7576 17.8679 17.5177L17.4458 16.0783C16.8863 16.2424 16.1761 16.25 14.4342 16.25V17.75ZM20.3283 13.1958C19.921 14.5848 18.8348 15.671 17.4458 16.0783L17.8679 17.5177C19.7471 16.9667 21.2167 15.4971 21.7677 13.6179L20.3283 13.1958ZM0.5 13.2283C0.5 15.7256 2.52441 17.75 5.02166 17.75V16.25C3.35284 16.25 2 14.8972 2 13.2283H0.5ZM9.25 0.25C7.86224 0.25 6.77632 0.249417 5.90494 0.320612C5.02479 0.392522 4.29768 0.541378 3.63955 0.876713L4.32054 2.21322C4.73197 2.00359 5.2397 1.87996 6.02708 1.81563C6.82322 1.75058 7.83749 1.75 9.25 1.75V0.25ZM2 9C2 7.58749 2.00058 6.57322 2.06563 5.77708C2.12996 4.9897 2.25359 4.48197 2.46322 4.07054L1.12671 3.38955C0.791378 4.04768 0.642522 4.77479 0.570612 5.65494C0.499417 6.52632 0.5 7.61224 0.5 9H2ZM3.63955 0.876713C2.55762 1.42798 1.67798 2.30762 1.12671 3.38955L2.46322 4.07054C2.87068 3.27085 3.52085 2.62068 4.32054 2.21322L3.63955 0.876713ZM13.25 1.75C14.6625 1.75 15.6768 1.75058 16.4729 1.81563C17.2603 1.87996 17.768 2.00359 18.1795 2.21322L18.8604 0.876713C18.2023 0.541378 17.4752 0.392522 16.5951 0.320612C15.7237 0.249417 14.6378 0.25 13.25 0.25V1.75ZM22 9C22 7.61224 22.0006 6.52632 21.9294 5.65494C21.8575 4.77479 21.7086 4.04768 21.3733 3.38955L20.0368 4.07054C20.2464 4.48197 20.37 4.9897 20.4344 5.77708C20.4994 6.57322 20.5 7.58749 20.5 9H22ZM18.1795 2.21322C18.9791 2.62068 19.6293 3.27085 20.0368 4.07054L21.3733 3.38955C20.822 2.30762 19.9424 1.42798 18.8604 0.876713L18.1795 2.21322ZM7.25 12.25H15.25V10.75H7.25V12.25ZM7.25 7.75H15.25V6.25H7.25V7.75Z" fill="#4B4B4D"/>
</g>
</svg>
