<svg width="20" height="20" viewBox="0 0 20 20" fill="none" xmlns="http://www.w3.org/2000/svg">
<g id="Message 7">
<path id="Vector" fill-rule="evenodd" clip-rule="evenodd" d="M19.455 2.73005C20 3.79961 20 5.19974 20 8V9.18422C20 10.8734 20 11.7179 19.798 12.4069C19.3188 14.041 18.041 15.3188 16.4069 15.798C15.7179 16 14.8734 16 13.1842 16H12.6354L12.5703 16.0001C11.5501 16.0066 10.5562 16.3251 9.72224 16.9128L9.66922 16.9506L7.05848 18.8154C6.1635 19.4546 4.98743 18.5314 5.3959 17.5103C5.68525 16.7869 5.15251 16 4.37341 16H3.77166C1.68863 16 0 14.3114 0 12.2283V8C0 5.19974 0 3.79961 0.544967 2.73005C1.02433 1.78924 1.78924 1.02433 2.73005 0.544967C3.79961 0 5.19974 0 8 0H12C14.8003 0 16.2004 0 17.27 0.544967C18.2108 1.02433 18.9757 1.78924 19.455 2.73005ZM6 5.25C5.58579 5.25 5.25 5.58579 5.25 6C5.25 6.41421 5.58579 6.75 6 6.75H14C14.4142 6.75 14.75 6.41421 14.75 6C14.75 5.58579 14.4142 5.25 14 5.25H6ZM6 9.75C5.58579 9.75 5.25 10.0858 5.25 10.5C5.25 10.9142 5.58579 11.25 6 11.25H14C14.4142 11.25 14.75 10.9142 14.75 10.5C14.75 10.0858 14.4142 9.75 14 9.75H6Z" fill="#0D99FF"/>
</g>
</svg>
