<svg width="14" height="4" viewBox="0 0 14 4" fill="none" xmlns="http://www.w3.org/2000/svg">
<g id="More Circle">
<g id="Vector">
<path d="M3.00065 1.77865C3.00065 2.51503 2.4037 3.11198 1.66732 3.11198C0.930938 3.11198 0.333984 2.51503 0.333984 1.77865C0.333984 1.04227 0.930938 0.445312 1.66732 0.445312C2.4037 0.445312 3.00065 1.04227 3.00065 1.77865Z" fill="#444444"/>
<path d="M8.33398 1.77865C8.33398 2.51503 7.73703 3.11198 7.00065 3.11198C6.26427 3.11198 5.66732 2.51503 5.66732 1.77865C5.66732 1.04227 6.26427 0.445312 7.00065 0.445312C7.73703 0.445312 8.33398 1.04227 8.33398 1.77865Z" fill="#444444"/>
<path d="M13.6673 1.77865C13.6673 2.51503 13.0704 3.11198 12.334 3.11198C11.5976 3.11198 11.0007 2.51503 11.0007 1.77865C11.0007 1.04227 11.5976 0.445312 12.334 0.445312C13.0704 0.445312 13.6673 1.04227 13.6673 1.77865Z" fill="#444444"/>
</g>
</g>
</svg>
