<svg width="32" height="32" viewBox="0 0 32 32" fill="none" xmlns="http://www.w3.org/2000/svg">
<g id="nest_remote_comfort_sensor">
<mask id="mask0_4014_27787" style="mask-type:alpha" maskUnits="userSpaceOnUse" x="0" y="0" width="32" height="32">
<rect id="Bounding box" width="32" height="32" fill="#D9D9D9"/>
</mask>
<g mask="url(#mask0_4014_27787)">
<path id="nest_remote_comfort_sensor_2" d="M15.9998 26.2803C14.7382 26.2803 13.6622 25.835 12.7716 24.9444C11.881 24.0539 11.4357 22.9778 11.4357 21.7163C11.4357 20.4548 11.881 19.3787 12.7716 18.4881C13.6622 17.5975 14.7382 17.1522 15.9998 17.1522C17.2613 17.1522 18.3374 17.5975 19.2279 18.4881C20.1185 19.3787 20.5638 20.4548 20.5638 21.7163C20.5638 22.9778 20.1185 24.0539 19.2279 24.9444C18.3374 25.835 17.2613 26.2803 15.9998 26.2803ZM16.0025 24.2804C16.7084 24.2804 17.3117 24.029 17.8126 23.5264C18.3134 23.0237 18.5639 22.4194 18.5639 21.7136C18.5639 21.0077 18.3125 20.4043 17.8099 19.9035C17.3072 19.4026 16.7029 19.1522 15.997 19.1522C15.2912 19.1522 14.6878 19.4035 14.187 19.9062C13.6861 20.4089 13.4357 21.0131 13.4357 21.719C13.4357 22.4249 13.687 23.0282 14.1897 23.5291C14.6923 24.03 15.2966 24.2804 16.0025 24.2804ZM5.33577 11.4907L3.86914 10.1061C5.43834 8.57283 7.25156 7.36387 9.30881 6.47924C11.3661 5.59464 13.5964 5.15234 15.9998 5.15234C18.4032 5.15234 20.6335 5.59464 22.6907 6.47924C24.748 7.36387 26.5612 8.57283 28.1304 10.1061L26.6638 11.4907C25.257 10.1386 23.645 9.0775 21.8279 8.30741C20.0109 7.53732 18.0681 7.15228 15.9998 7.15228C13.9314 7.15228 11.9887 7.53732 10.1716 8.30741C8.35454 9.0775 6.7426 10.1386 5.33577 11.4907ZM22.3356 15.6343C21.4707 14.8326 20.5087 14.2185 19.4497 13.792C18.3908 13.3655 17.2408 13.1522 15.9998 13.1522C14.7588 13.1522 13.6143 13.3655 12.5665 13.792C11.5186 14.2185 10.5511 14.8326 9.66394 15.6343L8.19731 14.2497C9.27764 13.2583 10.4746 12.4942 11.7883 11.9574C13.1019 11.4207 14.5058 11.1523 15.9998 11.1523C17.4938 11.1523 18.8942 11.4207 20.201 11.9574C21.5078 12.4942 22.7014 13.2583 23.7817 14.2497L22.3356 15.6343Z" fill="#4B4B4D"/>
</g>
</g>
</svg>
