<svg width="33" height="33" viewBox="0 0 33 33" fill="none" xmlns="http://www.w3.org/2000/svg">
<g id="nest_multi_room">
<mask id="mask0_4014_27173" style="mask-type:alpha" maskUnits="userSpaceOnUse" x="0" y="0" width="33" height="33">
<rect id="Bounding box" x="0.364014" y="0.21875" width="32" height="32" fill="#D9D9D9"/>
</mask>
<g mask="url(#mask0_4014_27173)">
<path id="nest_multi_room_2" d="M9.16392 25.0172H17.9639V21.0172H9.16392V25.0172ZM20.3639 25.0172H23.5639V21.0172H20.3639V25.0172ZM9.16392 18.6172H13.1639V14.6172H9.16392V18.6172ZM15.5639 18.6172H23.5639V14.6172H15.5639V18.6172ZM10.7972 12.2172H21.9306L16.3639 8.01719L10.7972 12.2172ZM9.15448 27.4172C8.49411 27.4172 7.93058 27.1822 7.46392 26.7122C6.99725 26.2422 6.76392 25.6772 6.76392 25.0172V13.4172C6.76392 13.0428 6.84725 12.688 7.01392 12.353C7.18058 12.018 7.41947 11.7283 7.73058 11.4839L14.9306 6.08385C15.1528 5.90608 15.3861 5.78385 15.6306 5.71719C15.875 5.65052 16.1195 5.61719 16.3639 5.61719C16.6084 5.61719 16.8528 5.65052 17.0972 5.71719C17.3417 5.78385 17.575 5.90608 17.7972 6.08385L24.9973 11.4839C25.3084 11.7283 25.5472 12.018 25.7139 12.353C25.8806 12.688 25.9639 13.0428 25.9639 13.4172V25.0172C25.9639 25.6772 25.7288 26.2422 25.2585 26.7122C24.7883 27.1822 24.2229 27.4172 23.5626 27.4172H9.15448Z" fill="#4B4B4D"/>
</g>
</g>
</svg>
