<svg width="15" height="18" viewBox="0 0 15 18" fill="none" xmlns="http://www.w3.org/2000/svg">
<path d="M14.1 5.89324C14.4959 5.89324 14.8169 5.57224 14.8169 5.17629C14.8169 4.78033 14.4959 4.45934 14.1 4.45934V5.89324ZM4.28052 1.86178C4.56176 1.58305 4.56378 1.12911 4.28504 0.847875C4.00631 0.56664 3.55237 0.564623 3.27114 0.843353L4.28052 1.86178ZM10.7278 16.1382C10.4466 16.417 10.4446 16.8709 10.7233 17.1522C11.002 17.4334 11.456 17.4354 11.7372 17.1567L10.7278 16.1382ZM0.716948 12.1068C0.320992 12.1068 0 12.4278 0 12.8237C0 13.2197 0.320992 13.5407 0.716948 13.5407V12.1068ZM0.957201 5.89324H14.1V4.45934H0.957201V5.89324ZM2.93231 3.19803L4.28052 1.86178L3.27114 0.843353L1.92292 2.1796L2.93231 3.19803ZM1.92292 2.1796C1.3973 2.70054 0.959295 3.13313 0.648684 3.51989C0.329002 3.91797 0.0858426 4.33632 0.020868 4.84601L1.44325 5.02732C1.46106 4.8876 1.52809 4.71484 1.76668 4.41775C2.01436 4.10934 2.38274 3.74271 2.93231 3.19803L1.92292 2.1796ZM12.0761 14.802L10.7278 16.1382L11.7372 17.1567L13.0854 15.8204L12.0761 14.802ZM13.0854 15.8204C13.611 15.2995 14.049 14.8668 14.3597 14.4802C14.6794 14.082 14.9225 13.6637 14.9875 13.154L13.5651 12.9727C13.5472 13.1124 13.4802 13.2852 13.2416 13.5823C12.994 13.8906 12.6256 14.2573 12.0761 14.802L13.0854 15.8204ZM13.5686 12.9425C13.5675 12.9526 13.5664 12.9626 13.5651 12.9727L14.9875 13.154C14.9903 13.1317 14.9928 13.1096 14.9951 13.0873L13.5686 12.9425ZM14.1 12.1068H0.716948V13.5407H14.1V12.1068ZM14.9951 13.0873C15.0535 12.5109 14.5798 12.1068 14.1 12.1068V13.5407C13.8316 13.5407 13.5315 13.3084 13.5686 12.9425L14.9951 13.0873ZM0.957201 4.45934C1.19165 4.45934 1.48898 4.66863 1.44325 5.02732L0.020868 4.84601C-0.0584072 5.46796 0.457384 5.89324 0.957201 5.89324V4.45934Z" fill="#B4B4B4"/>
</svg>
