<svg width="12" height="15" viewBox="0 0 12 15" fill="none" xmlns="http://www.w3.org/2000/svg">
<g id="Notification 3">
<path id="Vector" fill-rule="evenodd" clip-rule="evenodd" d="M1.66593 5.06227C1.38515 2.81605 3.13661 0.832031 5.40031 0.832031H6.53559C8.80169 0.832031 10.555 2.81815 10.2739 5.06675L10.2308 5.41137C10.1475 6.07811 10.3899 6.74425 10.8823 7.2015L10.9115 7.22867C11.9871 8.22751 12.1958 9.85197 11.4077 11.0903C10.8926 11.8996 10.0291 12.4143 9.08197 12.4892L8.95448 12.7078C8.27928 13.8653 7.22728 14.4987 6.12259 14.4987C5.0179 14.4987 3.9659 13.8653 3.2907 12.7078L3.16518 12.4926C2.03765 12.4224 1.0276 11.7509 0.530172 10.7254L0.461271 10.5833C-0.103163 9.41969 0.160901 8.02373 1.11135 7.14666C1.57003 6.7234 1.79625 6.10481 1.71883 5.48551L1.66593 5.06227ZM4.34708 12.4987C4.85331 13.1905 5.5085 13.4987 6.12259 13.4987C6.73668 13.4987 7.39187 13.1905 7.8981 12.4987H4.34708Z" fill="white"/>
</g>
</svg>
