<svg width="32" height="32" viewBox="0 0 32 32" fill="none" xmlns="http://www.w3.org/2000/svg">
<g id="oven_gen">
<mask id="mask0_4014_27796" style="mask-type:alpha" maskUnits="userSpaceOnUse" x="0" y="0" width="32" height="32">
<rect id="Bounding box" width="32" height="32" fill="#D9D9D9"/>
</mask>
<g mask="url(#mask0_4014_27796)">
<path id="oven_gen_2" d="M7.07726 27.3346C6.40375 27.3346 5.83366 27.1012 5.36699 26.6346C4.90033 26.1679 4.66699 25.5978 4.66699 24.9243V7.07824C4.66699 6.40473 4.90033 5.83464 5.36699 5.36797C5.83366 4.9013 6.40375 4.66797 7.07726 4.66797H24.9233C25.5968 4.66797 26.1669 4.9013 26.6336 5.36797C27.1003 5.83464 27.3336 6.40473 27.3336 7.07824V24.9243C27.3336 25.5978 27.1003 26.1679 26.6336 26.6346C26.1669 27.1012 25.5968 27.3346 24.9233 27.3346H7.07726ZM6.66696 15.6679V24.9243C6.66696 25.0269 6.70969 25.1209 6.79516 25.2064C6.88065 25.2919 6.97468 25.3346 7.07726 25.3346H24.9233C25.0259 25.3346 25.1199 25.2919 25.2054 25.2064C25.2909 25.1209 25.3336 25.0269 25.3336 24.9243V15.6679H22.0003V22.0012H10.0003V15.6679H6.66696ZM12.0003 20.0013H20.0003V15.6679H12.0003V20.0013ZM6.66696 13.668H25.3336V7.07824C25.3336 6.97566 25.2909 6.88163 25.2054 6.79614C25.1199 6.71067 25.0259 6.66794 24.9233 6.66794H7.07726C6.97468 6.66794 6.88065 6.71067 6.79516 6.79614C6.70969 6.88163 6.66696 6.97566 6.66696 7.07824V13.668ZM10.6413 10.7961C10.3148 10.7961 10.0366 10.6812 9.80673 10.4513C9.57679 10.2214 9.46183 9.94316 9.46183 9.61667C9.46183 9.29018 9.57679 9.01198 9.80673 8.78207C10.0366 8.55216 10.3148 8.4372 10.6413 8.4372C10.9678 8.4372 11.246 8.55216 11.4759 8.78207C11.7058 9.01198 11.8208 9.29018 11.8208 9.61667C11.8208 9.94316 11.7058 10.2214 11.4759 10.4513C11.246 10.6812 10.9678 10.7961 10.6413 10.7961ZM15.9747 10.7961C15.6482 10.7961 15.37 10.6812 15.1401 10.4513C14.9101 10.2214 14.7952 9.94316 14.7952 9.61667C14.7952 9.29018 14.9101 9.01198 15.1401 8.78207C15.37 8.55216 15.6482 8.4372 15.9747 8.4372C16.3011 8.4372 16.5793 8.55216 16.8093 8.78207C17.0392 9.01198 17.1541 9.29018 17.1541 9.61667C17.1541 9.94316 17.0392 10.2214 16.8093 10.4513C16.5793 10.6812 16.3011 10.7961 15.9747 10.7961ZM21.308 10.7961C20.9815 10.7961 20.7033 10.6812 20.4734 10.4513C20.2435 10.2214 20.1285 9.94316 20.1285 9.61667C20.1285 9.29018 20.2435 9.01198 20.4734 8.78207C20.7033 8.55216 20.9815 8.4372 21.308 8.4372C21.6345 8.4372 21.9127 8.55216 22.1426 8.78207C22.3725 9.01198 22.4875 9.29018 22.4875 9.61667C22.4875 9.94316 22.3725 10.2214 22.1426 10.4513C21.9127 10.6812 21.6345 10.7961 21.308 10.7961Z" fill="#4B4B4D"/>
</g>
</g>
</svg>
