<svg width="20" height="20" viewBox="0 0 20 20" fill="none" xmlns="http://www.w3.org/2000/svg">
<g id="pets">
<mask id="mask0_1732_9791" style="mask-type:alpha" maskUnits="userSpaceOnUse" x="0" y="0" width="20" height="20">
<rect id="Bounding box" width="20" height="20" fill="#D9D9D9"/>
</mask>
<g mask="url(#mask0_1732_9791)">
<path id="pets_2" d="M4.53109 17.2212L4.5317 17.2219C4.81647 17.5444 5.13777 17.6875 5.54199 17.6875C6.25011 17.6875 6.95116 17.6285 7.6456 17.5106C8.42338 17.3785 9.20844 17.3125 10.0003 17.3125C10.7922 17.3125 11.5773 17.3785 12.3551 17.5106C13.0495 17.6285 13.7505 17.6875 14.4587 17.6875C14.8629 17.6875 15.1847 17.5444 15.4701 17.2216L4.53109 17.2212ZM4.53109 17.2212C4.23133 16.8826 4.08366 16.4946 4.08366 16.0208C4.08366 15.4884 4.2586 15.0358 4.62815 14.63L4.62843 14.6297M4.53109 17.2212L4.62843 14.6297M4.62843 14.6297C5.11955 14.0899 5.60732 13.557 6.09173 13.031L4.62843 14.6297ZM8.18963 10.1817L8.18107 10.1911C7.81338 10.5968 7.49807 11.0291 7.23383 11.488C7.23377 11.4881 7.23371 11.4882 7.23365 11.4883L6.58366 11.1142L8.18963 10.1817ZM8.18963 10.1817L8.19787 10.1719M8.18963 10.1817L8.19787 10.1719M8.19787 10.1719C8.44939 9.87469 8.73845 9.63134 9.06712 9.43868C9.35349 9.27081 9.65983 9.18749 10.0003 9.18749C10.3493 9.18749 10.6617 9.26817 10.9505 9.42751C11.271 9.60435 11.5545 9.83689 11.8028 10.1303L11.8027 10.1303M8.19787 10.1719L11.8027 10.1303M11.8027 10.1303L11.8109 10.1397M11.8027 10.1303L11.8109 10.1397M11.8109 10.1397C12.1678 10.5476 12.4833 10.9875 12.7575 11.4599L12.7578 11.4604M11.8109 10.1397L12.7578 11.4604M12.7578 11.4604C13.0833 12.02 13.4653 12.5415 13.9029 13.0245L13.9029 13.0245M12.7578 11.4604L13.9029 13.0245M13.9029 13.0245L13.907 13.0289M13.9029 13.0245L13.907 13.0289M13.907 13.0289C14.3921 13.5557 14.8809 14.0893 15.3733 14.63M13.907 13.0289L15.3733 14.63M15.3733 14.63C15.7422 15.0356 15.917 15.4883 15.917 16.0208M15.3733 14.63L15.917 16.0208M15.917 16.0208C15.917 16.4949 15.7694 16.8829 15.4701 17.2215L15.917 16.0208ZM3.75033 9.35416C3.36054 9.35416 3.05986 9.22803 2.80149 8.96966C2.54311 8.71128 2.41699 8.41061 2.41699 8.02082C2.41699 7.63104 2.54311 7.33036 2.80149 7.07199C3.05986 6.81361 3.36054 6.68749 3.75033 6.68749C4.14011 6.68749 4.44079 6.81361 4.69916 7.07199C4.95754 7.33036 5.08366 7.63104 5.08366 8.02082C5.08366 8.41061 4.95754 8.71128 4.69916 8.96966C4.44079 9.22803 4.14011 9.35416 3.75033 9.35416ZM7.50033 6.02082C7.11054 6.02082 6.80986 5.8947 6.55149 5.63633C6.29311 5.37795 6.16699 5.07728 6.16699 4.68749C6.16699 4.2977 6.29311 3.99703 6.55149 3.73865C6.80986 3.48028 7.11054 3.35416 7.50033 3.35416C7.89011 3.35416 8.19079 3.48028 8.44916 3.73865C8.70754 3.99703 8.83366 4.2977 8.83366 4.68749C8.83366 5.07728 8.70754 5.37795 8.44916 5.63633C8.19079 5.8947 7.89011 6.02082 7.50033 6.02082ZM12.5003 6.02082C12.1105 6.02082 11.8099 5.8947 11.5515 5.63633C11.2931 5.37795 11.167 5.07728 11.167 4.68749C11.167 4.2977 11.2931 3.99703 11.5515 3.73865C11.8099 3.48028 12.1105 3.35416 12.5003 3.35416C12.8901 3.35416 13.1908 3.48028 13.4492 3.73865C13.7075 3.99703 13.8337 4.2977 13.8337 4.68749C13.8337 5.07728 13.7075 5.37795 13.4492 5.63633C13.1908 5.8947 12.8901 6.02082 12.5003 6.02082ZM16.2503 9.35416C15.8605 9.35416 15.5599 9.22803 15.3015 8.96966C15.0431 8.71128 14.917 8.41061 14.917 8.02082C14.917 7.63104 15.0431 7.33036 15.3015 7.07199C15.5599 6.81361 15.8605 6.68749 16.2503 6.68749C16.6401 6.68749 16.9408 6.81361 17.1992 7.07199C17.4575 7.33036 17.5837 7.63104 17.5837 8.02082C17.5837 8.41061 17.4575 8.71128 17.1992 8.96966C16.9408 9.22804 16.6401 9.35416 16.2503 9.35416Z" stroke="#4B4B4D" stroke-width="1.5"/>
</g>
</g>
</svg>
