<svg width="25" height="25" viewBox="0 0 25 25" fill="none" xmlns="http://www.w3.org/2000/svg">
<g id="phone (1) 1" clip-path="url(#clip0_7418_48451)">
<path id="Vector" d="M18.3203 16.3516C18.1025 16.1331 17.8438 15.9597 17.5589 15.8414C17.274 15.7231 16.9686 15.6622 16.6601 15.6622C16.3517 15.6622 16.0462 15.7231 15.7613 15.8414C15.4764 15.9597 15.2177 16.1331 15 16.3516L13.8672 17.4844C12.5917 16.6749 11.41 15.7264 10.3437 14.6563C9.2736 13.59 8.32509 12.4083 7.5156 11.1328L8.64841 10C8.86691 9.78228 9.04028 9.52355 9.15857 9.23866C9.27687 8.95377 9.33776 8.64834 9.33776 8.33987C9.33776 8.0314 9.27687 7.72596 9.15857 7.44107C9.04028 7.15619 8.86691 6.89745 8.64841 6.67971L6.43747 4.47659C6.22281 4.25736 5.96626 4.08353 5.68308 3.96543C5.39989 3.84732 5.09586 3.78735 4.78904 3.78909C4.48004 3.78833 4.17394 3.84868 3.88835 3.96667C3.60277 4.08466 3.34333 4.25795 3.12497 4.47659L2.06247 5.53127C1.55605 6.07578 1.17808 6.72686 0.956353 7.43664C0.734629 8.14643 0.674787 8.89688 0.781224 9.63284C1.03122 12.5625 2.9531 16.086 5.91404 19.0547C8.87497 22.0235 12.4375 23.9375 15.3672 24.2188C15.5858 24.2305 15.8048 24.2305 16.0234 24.2188C16.6541 24.2452 17.2836 24.1456 17.8753 23.9255C18.4669 23.7055 19.0086 23.3696 19.4687 22.9375L20.5234 21.875C20.742 21.6567 20.9153 21.3972 21.0333 21.1116C21.1513 20.8261 21.2117 20.52 21.2109 20.211C21.2126 19.9041 21.1527 19.6001 21.0346 19.3169C20.9165 19.0337 20.7426 18.7772 20.5234 18.5625L18.3203 16.3516ZM20.7812 4.21096C19.6955 3.12109 18.4048 2.25693 16.9834 1.66829C15.5621 1.07965 14.0384 0.778186 12.5 0.781273C12.2928 0.781273 12.0941 0.863583 11.9475 1.0101C11.801 1.15661 11.7187 1.35532 11.7187 1.56252C11.7187 1.76972 11.801 1.96844 11.9475 2.11495C12.0941 2.26146 12.2928 2.34377 12.5 2.34377C13.841 2.34373 15.1687 2.60925 16.4066 3.12501C17.6444 3.64077 18.7679 4.39657 19.7121 5.34879C20.6563 6.30101 21.4026 7.43079 21.9079 8.67294C22.4132 9.91509 22.6676 11.245 22.6562 12.586C22.6562 12.7932 22.7385 12.9919 22.885 13.1384C23.0316 13.2849 23.2303 13.3672 23.4375 13.3672C23.6447 13.3672 23.8434 13.2849 23.9899 13.1384C24.1364 12.9919 24.2187 12.7932 24.2187 12.586C24.2337 11.0312 23.9372 9.48922 23.3469 8.05085C22.7565 6.61249 21.8841 5.30687 20.7812 4.21096Z" fill="black"/>
<path id="Vector_2" d="M16.3359 8.67969C16.7793 9.12038 17.1301 9.64531 17.3675 10.2236C17.605 10.8018 17.7244 11.4218 17.7188 12.0469C17.7188 12.2541 17.8011 12.4528 17.9476 12.5993C18.0941 12.7458 18.2928 12.8281 18.5 12.8281C18.7072 12.8281 18.9059 12.7458 19.0524 12.5993C19.1989 12.4528 19.2812 12.2541 19.2812 12.0469C19.2916 11.2196 19.1376 10.3984 18.8281 9.6311C18.5187 8.86378 18.0599 8.16553 17.4785 7.57687C16.8971 6.9882 16.2046 6.52083 15.4412 6.20186C14.6778 5.8829 13.8586 5.71869 13.0312 5.71875C12.824 5.71875 12.6253 5.80106 12.4788 5.94757C12.3323 6.09409 12.25 6.2928 12.25 6.5C12.25 6.7072 12.3323 6.90591 12.4788 7.05243C12.6253 7.19894 12.824 7.28125 13.0312 7.28125C13.6469 7.28589 14.2557 7.41178 14.8227 7.65172C15.3897 7.89167 15.9039 8.24098 16.3359 8.67969Z" fill="black"/>
</g>
<defs>
<clipPath id="clip0_7418_48451">
<rect width="25" height="25" fill="white"/>
</clipPath>
</defs>
</svg>
