<svg width="20" height="20" viewBox="0 0 20 20" fill="none" xmlns="http://www.w3.org/2000/svg">
<g id="pool">
<mask id="mask0_1732_9777" style="mask-type:alpha" maskUnits="userSpaceOnUse" x="0" y="0" width="20" height="20">
<rect id="Bounding box" width="20" height="20" fill="#D9D9D9"/>
</mask>
<g mask="url(#mask0_1732_9777)">
<path id="pool_2" d="M2.60417 17.1666C2.42361 17.2083 2.25694 17.1666 2.10417 17.0416C1.95139 16.9166 1.875 16.743 1.875 16.5208C1.875 16.3958 1.92028 16.2777 2.01083 16.1666C2.10083 16.0555 2.22222 15.9721 2.375 15.9166C2.65278 15.8055 2.92722 15.6596 3.19833 15.4791C3.46889 15.2985 3.88889 15.2083 4.45833 15.2083C5.16667 15.2083 5.67 15.3471 5.96833 15.6249C6.26722 15.9027 6.6875 16.0416 7.22917 16.0416C7.75694 16.0416 8.17361 15.9027 8.47917 15.6249C8.78472 15.3471 9.29167 15.2083 10 15.2083C10.7083 15.2083 11.2189 15.3471 11.5317 15.6249C11.8439 15.9027 12.2639 16.0416 12.7917 16.0416C13.3194 16.0416 13.7325 15.9027 14.0308 15.6249C14.3297 15.3471 14.8333 15.2083 15.5417 15.2083C16.1111 15.2083 16.5314 15.2985 16.8025 15.4791C17.0731 15.6596 17.3472 15.8055 17.625 15.9166C17.7778 15.9721 17.8992 16.0555 17.9892 16.1666C18.0797 16.2777 18.125 16.3958 18.125 16.5208C18.125 16.743 18.0486 16.9166 17.8958 17.0416C17.7431 17.1666 17.5764 17.2083 17.3958 17.1666C17.0347 17.0555 16.7361 16.9096 16.5 16.7291C16.2639 16.5485 15.9444 16.4583 15.5417 16.4583C15.0417 16.4583 14.6422 16.5971 14.3433 16.8749C14.045 17.1527 13.5278 17.2916 12.7917 17.2916C12.0556 17.2916 11.5347 17.1527 11.2292 16.8749C10.9236 16.5971 10.5139 16.4583 10 16.4583C9.48611 16.4583 9.08 16.5971 8.78167 16.8749C8.48278 17.1527 7.96528 17.2916 7.22917 17.2916C6.49306 17.2916 5.97222 17.1527 5.66667 16.8749C5.36111 16.5971 4.95833 16.4583 4.45833 16.4583C4.05556 16.4583 3.73611 16.5485 3.5 16.7291C3.26389 16.9096 2.96528 17.0555 2.60417 17.1666ZM2.60417 13.4166C2.42361 13.4583 2.25694 13.4166 2.10417 13.2916C1.95139 13.1666 1.875 12.993 1.875 12.7708C1.875 12.6458 1.92028 12.5277 2.01083 12.4166C2.10083 12.3055 2.22222 12.2221 2.375 12.1666C2.65278 12.0555 2.92722 11.9096 3.19833 11.7291C3.46889 11.5485 3.88889 11.4583 4.45833 11.4583C5.16667 11.4583 5.67361 11.5971 5.97917 11.8749C6.28472 12.1527 6.70139 12.2916 7.22917 12.2916C7.75694 12.2916 8.17361 12.1527 8.47917 11.8749C8.78472 11.5971 9.29167 11.4583 10 11.4583C10.7083 11.4583 11.2153 11.5971 11.5208 11.8749C11.8264 12.1527 12.2431 12.2916 12.7708 12.2916C13.3125 12.2916 13.7325 12.1527 14.0308 11.8749C14.3297 11.5971 14.8333 11.4583 15.5417 11.4583C16.1111 11.4583 16.5314 11.5485 16.8025 11.7291C17.0731 11.9096 17.3472 12.0555 17.625 12.1666C17.7778 12.2221 17.8992 12.3055 17.9892 12.4166C18.0797 12.5277 18.125 12.6458 18.125 12.7708C18.125 12.993 18.0486 13.1666 17.8958 13.2916C17.7431 13.4166 17.5764 13.4583 17.3958 13.4166C17.0347 13.3055 16.7361 13.1596 16.5 12.9791C16.2639 12.7985 15.9444 12.7083 15.5417 12.7083C15.0417 12.7083 14.6494 12.8471 14.365 13.1249C14.08 13.4027 13.5556 13.5416 12.7917 13.5416C12.0417 13.5416 11.5175 13.4027 11.2192 13.1249C10.9203 12.8471 10.5139 12.7083 10 12.7083C9.47222 12.7083 9.06944 12.8471 8.79167 13.1249C8.51389 13.4027 7.99306 13.5416 7.22917 13.5416C6.46528 13.5416 5.9375 13.4027 5.64583 13.1249C5.35417 12.8471 4.95833 12.7083 4.45833 12.7083C4.05556 12.7083 3.73611 12.7985 3.5 12.9791C3.26389 13.1596 2.96528 13.3055 2.60417 13.4166ZM7.20833 9.79159C6.98611 9.79159 6.79167 9.75687 6.625 9.68743C6.45833 9.61798 6.29167 9.52076 6.125 9.39576L8.85417 6.66659L7.79167 5.62493C7.41667 5.24993 7.04167 4.9652 6.66667 4.77076C6.29167 4.57631 5.84722 4.44437 5.33333 4.37493C5.11111 4.34715 4.92722 4.25687 4.78167 4.10409C4.63556 3.95131 4.5625 3.76381 4.5625 3.54159C4.5625 3.30548 4.64583 3.10743 4.8125 2.94743C4.97917 2.78798 5.17361 2.72215 5.39583 2.74993C6.10417 2.81937 6.71889 2.96854 7.24 3.19743C7.76056 3.42687 8.27778 3.79854 8.79167 4.31243L13.875 9.39576C13.7083 9.52076 13.5417 9.61798 13.375 9.68743C13.2083 9.75687 13.0139 9.79159 12.7917 9.79159C12.3472 9.79159 11.9619 9.6527 11.6358 9.37493C11.3092 9.09715 10.7639 8.95826 10 8.95826C9.23611 8.95826 8.69111 9.09715 8.365 9.37493C8.03833 9.6527 7.65278 9.79159 7.20833 9.79159ZM13.8125 6.62493C13.2708 6.62493 12.8125 6.44076 12.4375 6.07243C12.0625 5.70465 11.875 5.24993 11.875 4.70826C11.875 4.18048 12.0625 3.72909 12.4375 3.35409C12.8125 2.97909 13.2708 2.79159 13.8125 2.79159C14.3403 2.79159 14.7917 2.97909 15.1667 3.35409C15.5417 3.72909 15.7292 4.18048 15.7292 4.70826C15.7292 5.24993 15.5417 5.70465 15.1667 6.07243C14.7917 6.44076 14.3403 6.62493 13.8125 6.62493Z" fill="#4B4B4D"/>
</g>
</g>
</svg>
