<svg width="18" height="16" viewBox="0 0 18 16" fill="none" xmlns="http://www.w3.org/2000/svg">
<path id="Vector" d="M11.4 12H8.2M5.8 12H4.2M1.00884 6.40001C1 6.86161 1 7.38921 1 8.00001C1 10.2402 1 11.3603 1.43598 12.216C1.81946 12.9686 2.43139 13.5806 3.18404 13.964C4.03969 14.4 5.15979 14.4 7.4 14.4H10.6C12.8402 14.4 13.9603 14.4 14.816 13.964C15.5686 13.5806 16.1806 12.9686 16.564 12.216C17 11.3603 17 10.2402 17 8.00001C17 7.38921 17 6.86161 16.9912 6.40001M1.00884 6.40001C1.03242 5.16863 1.11887 4.40638 1.43598 3.78405C1.81946 3.0314 2.43139 2.41947 3.18404 2.03598C4.03969 1.60001 5.15979 1.60001 7.4 1.60001H10.6C12.8402 1.60001 13.9603 1.60001 14.816 2.03598C15.5686 2.41947 16.1806 3.0314 16.564 3.78405C16.8811 4.40638 16.9676 5.16863 16.9912 6.40001M1.00884 6.40001H16.9912" stroke="#747474" stroke-width="1.5" stroke-linecap="round"/>
</svg>
