<svg width="20" height="20" viewBox="0 0 20 20" fill="none" xmlns="http://www.w3.org/2000/svg">
<g id="Refresh 2">
<path id="Vector" d="M0.916992 10.0007C0.916992 10.4149 1.25278 10.7507 1.66699 10.7507C2.08121 10.7507 2.41699 10.4149 2.41699 10.0007H0.916992ZM19.0837 10.0007C19.0837 9.58644 18.7479 9.25065 18.3337 9.25065C17.9194 9.25065 17.5837 9.58644 17.5837 10.0007H19.0837ZM4.23707 14.9296C3.96769 14.6149 3.49424 14.5782 3.17958 14.8476C2.86493 15.117 2.82823 15.5904 3.09761 15.9051L4.23707 14.9296ZM15.7636 5.07174C16.033 5.38639 16.5064 5.4231 16.8211 5.15372C17.1357 4.88434 17.1724 4.41088 16.903 4.09623L15.7636 5.07174ZM17.9637 0.830638C17.9618 0.416429 17.6245 0.0821438 17.2103 0.0839918C16.7961 0.0858399 16.4618 0.423121 16.4637 0.837331L17.9637 0.830638ZM17.2211 2.48874L17.971 2.4854V2.4854L17.2211 2.48874ZM14.1544 5.55541L14.151 6.3054H14.151L14.1544 5.55541ZM12.503 4.79804C12.0888 4.79619 11.7515 5.13047 11.7496 5.54468C11.7478 5.95889 12.0821 6.29617 12.4963 6.29802L12.503 4.79804ZM16.8806 4.91954L17.4737 5.37856V5.37856L16.8806 4.91954ZM16.5852 5.21496L17.0442 5.80808L17.0442 5.80808L16.5852 5.21496ZM1.96854 19.1037C1.97038 19.5179 2.30767 19.8521 2.72188 19.8503C3.13608 19.8484 3.47037 19.5112 3.46852 19.097L1.96854 19.1037ZM2.71115 17.4455L1.96115 17.4489L2.71115 17.4455ZM5.77781 14.3789L5.78116 13.6289H5.78116L5.77781 14.3789ZM7.42923 15.1363C7.84344 15.1381 8.18072 14.8038 8.18257 14.3896C8.18441 13.9754 7.85013 13.6381 7.43592 13.6363L7.42923 15.1363ZM3.0516 15.0147L2.45848 14.5557L2.45847 14.5557L3.0516 15.0147ZM3.34702 14.7193L2.888 14.1262H2.888L3.34702 14.7193ZM10.0003 0.917318C4.98374 0.917318 0.916992 4.98406 0.916992 10.0007H2.41699C2.41699 5.81249 5.81217 2.41732 10.0003 2.41732V0.917318ZM10.0003 19.084C15.0169 19.084 19.0837 15.0172 19.0837 10.0007H17.5837C17.5837 14.1888 14.1885 17.584 10.0003 17.584V19.084ZM3.09761 15.9051C4.76242 17.8497 7.23763 19.084 10.0003 19.084V17.584C7.69419 17.584 5.62906 16.5555 4.23707 14.9296L3.09761 15.9051ZM16.903 4.09623C15.2382 2.15162 12.763 0.917318 10.0003 0.917318V2.41732C12.3065 2.41732 14.3716 3.4458 15.7636 5.07174L16.903 4.09623ZM16.4637 0.837331L16.4711 2.49209L17.971 2.4854L17.9637 0.830638L16.4637 0.837331ZM14.1577 4.80542L12.503 4.79804L12.4963 6.29802L14.151 6.3054L14.1577 4.80542ZM16.4711 2.49209C16.4741 3.16955 16.4749 3.61426 16.4384 3.94834C16.4036 4.26733 16.3427 4.38913 16.2875 4.46052L17.4737 5.37856C17.7678 4.99861 17.88 4.56484 17.9296 4.11118C17.9775 3.6726 17.9739 3.12758 17.971 2.4854L16.4711 2.49209ZM14.151 6.3054C14.7932 6.30827 15.3382 6.31184 15.7768 6.26394C16.2305 6.2144 16.6643 6.10212 17.0442 5.80808L16.1262 4.62183C16.0548 4.67708 15.933 4.73797 15.614 4.77281C15.2799 4.80929 14.8352 4.80844 14.1577 4.80542L14.151 6.3054ZM16.2875 4.46052C16.2407 4.52091 16.1865 4.5751 16.1262 4.62183L17.0442 5.80808C17.205 5.68366 17.3493 5.53934 17.4737 5.37856L16.2875 4.46052ZM3.46852 19.097L3.46114 17.4422L1.96115 17.4489L1.96854 19.1037L3.46852 19.097ZM5.77447 15.1289L7.42923 15.1363L7.43592 13.6363L5.78116 13.6289L5.77447 15.1289ZM3.46114 17.4422C3.45812 16.7647 3.45727 16.32 3.49375 15.986C3.52859 15.667 3.58948 15.5452 3.64473 15.4738L2.45847 14.5557C2.16443 14.9357 2.05216 15.3694 2.00262 15.8231C1.95472 16.2617 1.95829 16.8067 1.96115 17.4489L3.46114 17.4422ZM5.78116 13.6289C5.13898 13.626 4.59396 13.6225 4.15538 13.6703C3.70172 13.7199 3.26795 13.8322 2.888 14.1262L3.80604 15.3125C3.87742 15.2572 3.99923 15.1963 4.31822 15.1615C4.6523 15.125 5.09701 15.1258 5.77447 15.1289L5.78116 13.6289ZM3.64473 15.4738C3.69146 15.4134 3.74565 15.3592 3.80604 15.3125L2.888 14.1262C2.72722 14.2506 2.5829 14.3949 2.45848 14.5557L3.64473 15.4738Z" fill="#4B4B4D"/>
</g>
</svg>
