<svg width="52" height="52" viewBox="0 0 52 52" fill="none" xmlns="http://www.w3.org/2000/svg">
<g id="Search 1">
<g id="Vector">
<path fill-rule="evenodd" clip-rule="evenodd" d="M0.666656 21.3333C0.666656 9.73527 10.0687 0.333252 21.6667 0.333252C33.2646 0.333252 42.6667 9.73527 42.6667 21.3333C42.6667 32.9312 33.2646 42.3333 21.6667 42.3333C10.0687 42.3333 0.666656 32.9312 0.666656 21.3333ZM19.2366 7.20305C19.3878 8.15765 18.7365 9.05407 17.7819 9.20526C13.5387 9.87733 10.2107 13.2053 9.53867 17.4485C9.38747 18.4031 8.49105 19.0544 7.53645 18.9032C6.58185 18.752 5.93056 17.8556 6.08176 16.901C6.99103 11.1601 11.4935 6.65762 17.2344 5.74835C18.189 5.59716 19.0854 6.24845 19.2366 7.20305Z" fill="#D9D9D9"/>
<path d="M39.0959 38.7625C39.7793 38.0791 40.8874 38.0791 41.5708 38.7625L50.9039 48.0957C51.5873 48.7791 51.5873 49.8872 50.9038 50.5706C50.2204 51.254 49.1124 51.254 48.429 50.5706L39.0959 41.2374C38.4125 40.5539 38.4125 39.4459 39.0959 38.7625Z" fill="#D9D9D9"/>
<path fill-rule="evenodd" clip-rule="evenodd" d="M0.666656 21.3333C0.666656 9.73527 10.0687 0.333252 21.6667 0.333252C33.2646 0.333252 42.6667 9.73527 42.6667 21.3333C42.6667 32.9312 33.2646 42.3333 21.6667 42.3333C10.0687 42.3333 0.666656 32.9312 0.666656 21.3333ZM19.2366 7.20305C19.3878 8.15765 18.7365 9.05407 17.7819 9.20526C13.5387 9.87733 10.2107 13.2053 9.53867 17.4485C9.38747 18.4031 8.49105 19.0544 7.53645 18.9032C6.58185 18.752 5.93056 17.8556 6.08176 16.901C6.99103 11.1601 11.4935 6.65762 17.2344 5.74835C18.189 5.59716 19.0854 6.24845 19.2366 7.20305Z" stroke="#D9D9D9"/>
<path d="M39.0959 38.7625C39.7793 38.0791 40.8874 38.0791 41.5708 38.7625L50.9039 48.0957C51.5873 48.7791 51.5873 49.8872 50.9038 50.5706C50.2204 51.254 49.1124 51.254 48.429 50.5706L39.0959 41.2374C38.4125 40.5539 38.4125 39.4459 39.0959 38.7625Z" stroke="#D9D9D9"/>
</g>
</g>
</svg>
