<svg width="22" height="22" viewBox="0 0 22 22" fill="none" xmlns="http://www.w3.org/2000/svg">
<g id="Search 1">
<g id="Vector">
<path fill-rule="evenodd" clip-rule="evenodd" d="M0.25 9C0.25 4.02944 4.27944 0 9.25 0C14.2206 0 18.25 4.02944 18.25 9C18.25 13.9706 14.2206 18 9.25 18C4.27944 18 0.25 13.9706 0.25 9ZM8.20856 2.9442C8.27336 3.35331 7.99423 3.73749 7.58512 3.80229C5.76658 4.09032 4.34032 5.51658 4.05229 7.33512C3.98749 7.74423 3.60331 8.02336 3.1942 7.95856C2.78508 7.89376 2.50596 7.50958 2.57076 7.10047C2.96044 4.64008 4.89008 2.71044 7.35047 2.32076C7.75958 2.25596 8.14376 2.53508 8.20856 2.9442Z" fill="#0D99FF"/>
<path d="M16.7197 16.4697C17.0126 16.1768 17.4874 16.1768 17.7803 16.4697L21.7802 20.4696C22.0731 20.7625 22.0731 21.2374 21.7802 21.5303C21.4873 21.8232 21.0125 21.8232 20.7196 21.5303L16.7197 17.5303C16.4268 17.2374 16.4268 16.7626 16.7197 16.4697Z" fill="#0D99FF"/>
<path fill-rule="evenodd" clip-rule="evenodd" d="M0.25 9C0.25 4.02944 4.27944 0 9.25 0C14.2206 0 18.25 4.02944 18.25 9C18.25 13.9706 14.2206 18 9.25 18C4.27944 18 0.25 13.9706 0.25 9ZM8.20856 2.9442C8.27336 3.35331 7.99423 3.73749 7.58512 3.80229C5.76658 4.09032 4.34032 5.51658 4.05229 7.33512C3.98749 7.74423 3.60331 8.02336 3.1942 7.95856C2.78508 7.89376 2.50596 7.50958 2.57076 7.10047C2.96044 4.64008 4.89008 2.71044 7.35047 2.32076C7.75958 2.25596 8.14376 2.53508 8.20856 2.9442Z" stroke="#0D99FF"/>
<path d="M16.7197 16.4697C17.0126 16.1768 17.4874 16.1768 17.7803 16.4697L21.7802 20.4696C22.0731 20.7625 22.0731 21.2374 21.7802 21.5303C21.4873 21.8232 21.0125 21.8232 20.7196 21.5303L16.7197 17.5303C16.4268 17.2374 16.4268 16.7626 16.7197 16.4697Z" stroke="#0D99FF"/>
</g>
</g>
</svg>
