<svg width="23" height="23" viewBox="0 0 23 23" fill="none" xmlns="http://www.w3.org/2000/svg">
<g id="Search 1">
<path id="Vector" d="M18.7804 17.4698C18.4875 17.1769 18.0126 17.1769 17.7197 17.4698C17.4268 17.7626 17.4268 18.2375 17.7197 18.5304L18.7804 17.4698ZM21.7196 22.5304C22.0125 22.8233 22.4874 22.8233 22.7803 22.5304C23.0732 22.2375 23.0732 21.7626 22.7803 21.4697L21.7196 22.5304ZM8.58512 4.80232C8.99423 4.73752 9.27336 4.35334 9.20856 3.94423C9.14376 3.53511 8.75958 3.25599 8.35047 3.32079L8.58512 4.80232ZM3.57076 8.1005C3.50596 8.50961 3.78508 8.89379 4.1942 8.95859C4.60331 9.02339 4.98749 8.74426 5.05229 8.33515L3.57076 8.1005ZM17.7197 18.5304L21.7196 22.5304L22.7803 21.4697L18.7804 17.4698L17.7197 18.5304ZM10.25 18.25C5.69365 18.25 2 14.5563 2 10H0.5C0.5 15.3848 4.86522 19.75 10.25 19.75V18.25ZM18.5 10C18.5 14.5563 14.8063 18.25 10.25 18.25V19.75C15.6348 19.75 20 15.3848 20 10H18.5ZM10.25 1.75C14.8063 1.75 18.5 5.44365 18.5 10H20C20 4.61522 15.6348 0.25 10.25 0.25V1.75ZM10.25 0.25C4.86522 0.25 0.5 4.61522 0.5 10H2C2 5.44365 5.69365 1.75 10.25 1.75V0.25ZM8.35047 3.32079C5.89008 3.71047 3.96044 5.64012 3.57076 8.1005L5.05229 8.33515C5.34032 6.51661 6.76658 5.09035 8.58512 4.80232L8.35047 3.32079Z" fill="#4B4B4D"/>
</g>
</svg>
