<svg width="20" height="19" viewBox="0 0 20 19" fill="none" xmlns="http://www.w3.org/2000/svg">
<g id="Search 2">
<path id="Vector" d="M15.643 14.6967C15.4478 14.5014 15.1312 14.5014 14.9359 14.6967C14.7407 14.8919 14.7407 15.2085 14.9359 15.4038L15.643 14.6967ZM18.3043 18.7722C18.4995 18.9674 18.8161 18.9674 19.0114 18.7722C19.2066 18.5769 19.2066 18.2603 19.0114 18.0651L18.3043 18.7722ZM14.9359 15.4038L18.3043 18.7722L19.0114 18.0651L15.643 14.6967L14.9359 15.4038ZM8.55258 15.3923C4.64299 15.3923 1.47363 12.2229 1.47363 8.31332H0.473633C0.473633 12.7752 4.0907 16.3923 8.55258 16.3923V15.3923ZM15.6315 8.31332C15.6315 12.2229 12.4622 15.3923 8.55258 15.3923V16.3923C13.0145 16.3923 16.6315 12.7752 16.6315 8.31332H15.6315ZM8.55258 1.23438C12.4622 1.23438 15.6315 4.40373 15.6315 8.31332H16.6315C16.6315 3.85144 13.0145 0.234375 8.55258 0.234375V1.23438ZM8.55258 0.234375C4.0907 0.234375 0.473633 3.85144 0.473633 8.31332H1.47363C1.47363 4.40373 4.64299 1.23438 8.55258 1.23438V0.234375Z" fill="#4B4B4D"/>
</g>
</svg>
