<svg width="20" height="20" viewBox="0 0 20 20" fill="none" xmlns="http://www.w3.org/2000/svg">
<g id="sound_detection_dog_barking">
<mask id="mask0_1732_9786" style="mask-type:alpha" maskUnits="userSpaceOnUse" x="0" y="0" width="20" height="20">
<rect id="Bounding box" width="20" height="20" fill="#D9D9D9"/>
</mask>
<g mask="url(#mask0_1732_9786)">
<path id="sound_detection_dog_barking_2" d="M4.04134 18.3333V10.3333L3.81217 10.1042C3.6594 9.95138 3.54134 9.77082 3.45801 9.56249C3.37467 9.35416 3.33301 9.13888 3.33301 8.91666C3.33301 8.69443 3.37467 8.48277 3.45801 8.28166C3.54134 8.07999 3.6594 7.90277 3.81217 7.74999L6.54134 4.99999H9.87467L13.208 1.66666L14.9163 3.37499C15.4719 3.93055 15.9025 4.55888 16.208 5.25999C16.5136 5.96166 16.6663 6.70832 16.6663 7.49999C16.6663 8.29166 16.5136 9.03832 16.208 9.73999C15.9025 10.4411 15.4719 11.0694 14.9163 11.625L13.208 13.3333V18.3333H4.04134ZM5.70801 16.6667H11.5413V12.6458L13.7288 10.4583C14.1316 10.0555 14.4441 9.60416 14.6663 9.10416C14.8886 8.60416 14.9997 8.06943 14.9997 7.49999C14.9997 6.94443 14.885 6.41666 14.6555 5.91666C14.4266 5.41666 14.1177 4.96527 13.7288 4.56249L13.208 4.02082L10.5622 6.66666H7.22884L6.74967 7.14582L8.14551 8.54166C8.5344 8.93055 8.83662 9.37832 9.05217 9.88499C9.26717 10.3922 9.37467 10.9236 9.37467 11.4792C9.37467 12.0347 9.27051 12.5661 9.06217 13.0733C8.85384 13.58 8.54829 14.0347 8.14551 14.4375L5.70801 12V16.6667Z" fill="#4B4B4D"/>
</g>
</g>
</svg>
