<svg width="16" height="14" viewBox="0 0 16 14" fill="none" xmlns="http://www.w3.org/2000/svg">
<path d="M5.69908 1.9997C6.42325 -0.229065 9.57635 -0.229065 10.3005 1.9997C10.6244 2.99643 11.5532 3.67126 12.6012 3.67126C14.9447 3.67126 15.9191 6.67004 14.0232 8.04749C13.1753 8.6635 12.8205 9.75541 13.1444 10.7521C13.8685 12.9809 11.3176 14.8343 9.42172 13.4568C8.57385 12.8408 7.42575 12.8408 6.57788 13.4568C4.68198 14.8343 2.13107 12.9809 2.85524 10.7521C3.1791 9.75541 2.82431 8.6635 1.97644 8.04749C0.0805464 6.67004 1.05491 3.67126 3.39837 3.67126C4.44639 3.67126 5.37523 2.99643 5.69908 1.9997Z" fill="#EFD414"/>
</svg>
