<svg width="16" height="16" viewBox="0 0 16 16" fill="none" xmlns="http://www.w3.org/2000/svg">
<g id="Star 1">
<g id="Vector">
<path d="M5.69908 3.0049C6.42325 0.776138 9.57635 0.776138 10.3005 3.0049C10.6244 4.00163 11.5532 4.67647 12.6012 4.67647C14.9447 4.67647 15.9191 7.67524 14.0232 9.05269C13.1753 9.66871 12.8205 10.7606 13.1444 11.7573C13.8685 13.9861 11.3176 15.8395 9.42172 14.462C8.57385 13.846 7.42575 13.846 6.57788 14.462C4.68198 15.8395 2.13107 13.9861 2.85524 11.7573C3.1791 10.7606 2.82431 9.66871 1.97644 9.05269C0.0805464 7.67524 1.05491 4.67647 3.39837 4.67647C4.44639 4.67647 5.37523 4.00163 5.69908 3.0049Z" fill="#FAE863"/>
<path d="M9.33314 5.25735C9.54827 5.89244 10.1653 6.32244 10.8614 6.32244M3.39837 4.67647C4.44639 4.67647 5.37523 4.00163 5.69908 3.0049C6.42325 0.776138 9.57635 0.776138 10.3005 3.0049C10.6244 4.00163 11.5532 4.67647 12.6012 4.67647C14.9447 4.67647 15.9191 7.67524 14.0232 9.05269C13.1753 9.66871 12.8205 10.7606 13.1444 11.7573C13.8685 13.9861 11.3176 15.8395 9.42172 14.462C8.57385 13.846 7.42575 13.846 6.57788 14.462C4.68198 15.8395 2.13107 13.9861 2.85524 11.7573C3.1791 10.7606 2.82431 9.66871 1.97644 9.05269C0.0805464 7.67524 1.05491 4.67647 3.39837 4.67647Z" stroke="#FAE863" stroke-linecap="round"/>
</g>
</g>
</svg>
