<svg width="20" height="17" viewBox="0 0 20 17" fill="none" xmlns="http://www.w3.org/2000/svg">
<g id="Swap 1">
<path id="Vector" d="M5.75 2C5.75 1.58579 5.41421 1.25 5 1.25C4.58578 1.25 4.25 1.58579 4.25 2H5.75ZM5 15H5.75H5ZM1.58768 11.534C1.33034 11.2095 0.858598 11.155 0.53403 11.4123C0.209461 11.6697 0.154968 12.1414 0.412317 12.466L1.58768 11.534ZM2.39785 13.763L1.81016 14.2289L2.39785 13.763ZM7.60215 13.763L7.01447 13.297L7.60215 13.763ZM9.58768 12.466C9.84503 12.1414 9.79054 11.6697 9.46597 11.4123C9.1414 11.155 8.66966 11.2095 8.41232 11.534L9.58768 12.466ZM4.74933 15.9801L4.63133 16.7208L4.63133 16.7208L4.74933 15.9801ZM5.25067 15.9801L5.36867 16.7208L5.36867 16.7208L5.25067 15.9801ZM14.25 15C14.25 15.4142 14.5858 15.75 15 15.75C15.4142 15.75 15.75 15.4142 15.75 15H14.25ZM15 2H14.25H15ZM10.4123 4.53403C10.155 4.8586 10.2095 5.33034 10.534 5.58768C10.8586 5.84503 11.3303 5.79054 11.5877 5.46597L10.4123 4.53403ZM12.3978 3.23703L11.8102 2.77106L12.3978 3.23703ZM17.6022 3.23703L18.1898 2.77106L17.6022 3.23703ZM18.4123 5.46597C18.6697 5.79054 19.1414 5.84503 19.466 5.58768C19.7905 5.33034 19.845 4.8586 19.5877 4.53403L18.4123 5.46597ZM14.7493 1.01989L14.6313 0.279231L14.6313 0.279232L14.7493 1.01989ZM15.2507 1.01989L15.3687 0.279232L15.3687 0.279231L15.2507 1.01989ZM4.25 2L4.25 15H5.75L5.75 2H4.25ZM0.412317 12.466L1.81016 14.2289L2.98553 13.297L1.58768 11.534L0.412317 12.466ZM8.18984 14.2289L9.58768 12.466L8.41232 11.534L7.01447 13.297L8.18984 14.2289ZM1.81016 14.2289C2.35616 14.9176 2.80475 15.4852 3.20551 15.8875C3.60963 16.2932 4.05816 16.6294 4.63133 16.7208L4.86734 15.2395C4.76116 15.2225 4.59132 15.1532 4.26822 14.8289C3.94177 14.5012 3.55429 14.0143 2.98553 13.297L1.81016 14.2289ZM7.01447 13.297C6.44571 14.0143 6.05823 14.5012 5.73178 14.8289C5.40868 15.1532 5.23884 15.2225 5.13266 15.2395L5.36867 16.7208C5.94184 16.6294 6.39038 16.2932 6.79449 15.8875C7.19525 15.4852 7.64384 14.9175 8.18984 14.2289L7.01447 13.297ZM15.75 15L15.75 2H14.25L14.25 15H15.75ZM11.5877 5.46597L12.9855 3.703L11.8102 2.77106L10.4123 4.53403L11.5877 5.46597ZM17.0145 3.703L18.4123 5.46597L19.5877 4.53403L18.1898 2.77106L17.0145 3.703ZM12.9855 3.703C13.5543 2.98568 13.9418 2.49884 14.2682 2.17113C14.5913 1.84678 14.7612 1.77747 14.8673 1.76055L14.6313 0.279232C14.0582 0.370553 13.6096 0.706845 13.2055 1.11252C12.8047 1.51484 12.3562 2.08245 11.8102 2.77106L12.9855 3.703ZM18.1898 2.77106C17.6438 2.08245 17.1953 1.51484 16.7945 1.11252C16.3904 0.706846 15.9418 0.370553 15.3687 0.279232L15.1327 1.76055C15.2388 1.77747 15.4087 1.84678 15.7318 2.17113C16.0582 2.49884 16.4457 2.98568 17.0145 3.703L18.1898 2.77106ZM14.8673 1.76055C14.9117 1.75348 14.9559 1.75 15 1.75V0.25C14.8766 0.25 14.7534 0.259776 14.6313 0.279231L14.8673 1.76055ZM15 1.75C15.0441 1.75 15.0883 1.75348 15.1327 1.76055L15.3687 0.279231C15.2466 0.259776 15.1234 0.25 15 0.25V1.75ZM15.75 2V1H14.25V2H15.75ZM4.63133 16.7208C4.75344 16.7402 4.87661 16.75 5 16.75L5 15.25C4.95594 15.25 4.91168 15.2465 4.86734 15.2395L4.63133 16.7208ZM5 16.75C5.12338 16.75 5.24656 16.7402 5.36867 16.7208L5.13266 15.2395C5.08832 15.2465 5.04406 15.25 5 15.25L5 16.75ZM4.25 15V16H5.75V15H4.25Z" fill="#444444"/>
</g>
</svg>
