<svg width="20" height="20" viewBox="0 0 20 20" fill="none" xmlns="http://www.w3.org/2000/svg">
<g id="sync_alt">
<mask id="mask0_1720_19794" style="mask-type:alpha" maskUnits="userSpaceOnUse" x="0" y="0" width="20" height="20">
<rect id="Bounding box" width="20" height="20" fill="#D9D9D9"/>
</mask>
<g mask="url(#mask0_1720_19794)">
<path id="sync_alt_2" d="M4.47754 13.9583L6.41346 15.8943C6.53739 16.0182 6.59856 16.1632 6.59696 16.3293C6.59535 16.4955 6.52991 16.6432 6.40065 16.7724C6.27137 16.8932 6.125 16.9557 5.96154 16.9599C5.79809 16.9642 5.65172 16.9017 5.52246 16.7724L2.61061 13.8606C2.53262 13.7826 2.4776 13.7003 2.44554 13.6138C2.41349 13.5273 2.39746 13.4338 2.39746 13.3333C2.39746 13.2329 2.41349 13.1394 2.44554 13.0529C2.4776 12.9664 2.53262 12.8841 2.61061 12.8061L5.52246 9.89426C5.63784 9.77887 5.78072 9.71984 5.95113 9.71718C6.12153 9.71449 6.27137 9.77352 6.40065 9.89426C6.52991 10.0235 6.59454 10.172 6.59454 10.3398C6.59454 10.5075 6.52991 10.656 6.40065 10.7853L4.47754 12.7084H16.4583C16.6357 12.7084 16.7842 12.7682 16.9038 12.8878C17.0235 13.0075 17.0833 13.156 17.0833 13.3333C17.0833 13.5107 17.0235 13.6592 16.9038 13.7788C16.7842 13.8985 16.6357 13.9583 16.4583 13.9583H4.47754ZM15.5225 7.29166H3.54169C3.36434 7.29166 3.21584 7.23183 3.09619 7.11217C2.97652 6.99252 2.91669 6.84402 2.91669 6.66668C2.91669 6.48933 2.97652 6.34083 3.09619 6.22118C3.21584 6.10152 3.36434 6.0417 3.54169 6.0417H15.5225L13.5865 4.10576C13.4626 3.98184 13.4014 3.83681 13.403 3.67068C13.4047 3.50455 13.4701 3.35686 13.5994 3.22759C13.7286 3.10686 13.875 3.04436 14.0385 3.04009C14.2019 3.03581 14.3483 3.09831 14.4775 3.22759L17.3894 6.13945C17.4674 6.21743 17.5224 6.2997 17.5545 6.38624C17.5865 6.47277 17.6025 6.56624 17.6025 6.66668C17.6025 6.76711 17.5865 6.86058 17.5545 6.94711C17.5224 7.03365 17.4674 7.11592 17.3894 7.1939L14.4775 10.1058C14.3622 10.2211 14.2193 10.2802 14.0489 10.2828C13.8785 10.2855 13.7286 10.2265 13.5994 10.1058C13.4701 9.97649 13.4055 9.82799 13.4055 9.66026C13.4055 9.49254 13.4701 9.34404 13.5994 9.21476L15.5225 7.29166Z" fill="#747474"/>
</g>
</g>
</svg>
