<svg width="32" height="33" viewBox="0 0 32 33" fill="none" xmlns="http://www.w3.org/2000/svg">
<g id="sync_alt">
<mask id="mask0_5770_17269" style="mask-type:alpha" maskUnits="userSpaceOnUse" x="0" y="0" width="32" height="33">
<rect id="Bounding box" y="0.5" width="32" height="32" fill="#D9D9D9"/>
</mask>
<g mask="url(#mask0_5770_17269)">
<path id="sync_alt_2" d="M7.16407 22.8328L10.2615 25.9303C10.4598 26.1285 10.5577 26.3606 10.5551 26.6264C10.5526 26.8922 10.4479 27.1285 10.241 27.3353C10.0342 27.5285 9.8 27.6285 9.53847 27.6353C9.27694 27.6422 9.04276 27.5422 8.83594 27.3353L4.17697 22.6764C4.05219 22.5516 3.96416 22.42 3.91287 22.2815C3.86158 22.1431 3.83594 21.9935 3.83594 21.8328C3.83594 21.6721 3.86158 21.5226 3.91287 21.3841C3.96416 21.2456 4.05219 21.114 4.17697 20.9892L8.83594 16.3303C9.02054 16.1457 9.24916 16.0512 9.5218 16.0469C9.79445 16.0427 10.0342 16.1371 10.241 16.3303C10.4479 16.5371 10.5513 16.7747 10.5513 17.0431C10.5513 17.3114 10.4479 17.549 10.241 17.7559L7.16407 20.8328H26.3333C26.6171 20.8328 26.8547 20.9286 27.0461 21.12C27.2376 21.3115 27.3333 21.5491 27.3333 21.8328C27.3333 22.1166 27.2376 22.3542 27.0461 22.5456C26.8547 22.7371 26.6171 22.8328 26.3333 22.8328H7.16407ZM24.8359 12.1661H5.6667C5.38295 12.1661 5.14535 12.0704 4.9539 11.8789C4.76244 11.6875 4.6667 11.4499 4.6667 11.1661C4.6667 10.8824 4.76244 10.6448 4.9539 10.4533C5.14535 10.2619 5.38295 10.1662 5.6667 10.1662H24.8359L21.7385 7.06868C21.5402 6.87041 21.4423 6.63837 21.4449 6.37254C21.4474 6.10674 21.5521 5.87043 21.759 5.66361C21.9658 5.47043 22.2 5.37043 22.4615 5.36361C22.7231 5.35677 22.9573 5.45677 23.1641 5.66361L27.823 10.3226C27.9478 10.4474 28.0359 10.579 28.0871 10.7174C28.1384 10.8559 28.1641 11.0055 28.1641 11.1661C28.1641 11.3268 28.1384 11.4764 28.0871 11.6148C28.0359 11.7533 27.9478 11.8849 27.823 12.0097L23.1641 16.6687C22.9795 16.8533 22.7508 16.9477 22.4782 16.952C22.2056 16.9563 21.9658 16.8619 21.759 16.6687C21.5521 16.4619 21.4487 16.2243 21.4487 15.9559C21.4487 15.6875 21.5521 15.4499 21.759 15.2431L24.8359 12.1661Z" fill="#4B4B4D"/>
</g>
</g>
</svg>
