<svg width="13" height="10" viewBox="0 0 13 10" fill="none" xmlns="http://www.w3.org/2000/svg">
<g id="Tick">
<path id="Vector" d="M12.5972 1.60936C12.7833 1.38606 12.7531 1.05418 12.5298 0.868096C12.3065 0.682009 11.9746 0.71218 11.7885 0.935484L8.00562 5.475C7.24573 6.38686 6.71118 7.02634 6.24753 7.44502C5.7947 7.85393 5.48218 7.9839 5.17533 7.9839C4.86848 7.9839 4.55597 7.85393 4.10313 7.44502C3.63948 7.02634 3.10493 6.38686 2.34504 5.475L1.36913 4.3039C1.18305 4.0806 0.85117 4.05043 0.627866 4.23652C0.404563 4.4226 0.374392 4.75448 0.560479 4.97778L1.56347 6.18138C2.28998 7.05321 2.87179 7.75141 3.39766 8.22627C3.94086 8.71678 4.49613 9.03653 5.17533 9.03653C5.85453 9.03653 6.4098 8.71678 6.953 8.22627C7.47886 7.75141 8.06067 7.05322 8.78717 6.18141L12.5972 1.60936Z" fill="#0D99FF"/>
</g>
</svg>
