<svg width="18" height="17" viewBox="0 0 18 17" fill="none" xmlns="http://www.w3.org/2000/svg">
<g id="Tick Circle">
<path id="Vector" fill-rule="evenodd" clip-rule="evenodd" d="M9.10526 16.9202C13.7561 16.9202 17.5263 13.15 17.5263 8.49918C17.5263 3.84836 13.7561 0.078125 9.10526 0.078125C4.45444 0.078125 0.684204 3.84836 0.684204 8.49918C0.684204 13.15 4.45444 16.9202 9.10526 16.9202ZM13.7863 6.39414C14.019 6.13427 13.9969 5.73498 13.7371 5.50231C13.4772 5.26965 13.0779 5.29171 12.8452 5.55158L10.008 8.72057C9.43313 9.36271 9.04597 9.79288 8.71496 10.0711C8.39963 10.3361 8.21442 10.3939 8.05263 10.3939C7.89083 10.3939 7.70562 10.3361 7.39029 10.0711C7.05928 9.79288 6.67212 9.36271 6.09721 8.72057L5.36528 7.90304C5.13261 7.64317 4.73333 7.62111 4.47345 7.85378C4.21357 8.08644 4.19152 8.48573 4.42418 8.74561L5.18739 9.59806C5.72284 10.1962 6.16946 10.6951 6.57755 11.0381C7.00925 11.4009 7.47488 11.6571 8.05263 11.6571C8.63037 11.6571 9.096 11.4009 9.5277 11.0381C9.93579 10.6951 10.3824 10.1962 10.9179 9.59807L13.7863 6.39414Z" fill="#25C26E"/>
</g>
</svg>
