<svg width="18" height="19" viewBox="0 0 18 19" fill="none" xmlns="http://www.w3.org/2000/svg">
<g id="Time Circle 3">
<g id="Vector ">
<path d="M3.97507 1.52957C4.24461 1.31394 4.28831 0.920631 4.07268 0.651093C3.85705 0.381554 3.46374 0.337853 3.1942 0.553484L1.11087 2.22015C0.841329 2.43578 0.797628 2.82909 1.01326 3.09863C1.22889 3.36817 1.6222 3.41187 1.89174 3.19624L3.97507 1.52957Z" fill="#444444"/>
<path d="M14.8084 0.553484C14.5389 0.337853 14.1456 0.381554 13.9299 0.651093C13.7143 0.920631 13.758 1.31394 14.0275 1.52957L16.1109 3.19624C16.3804 3.41187 16.7737 3.36817 16.9893 3.09863C17.205 2.82909 17.1613 2.43578 16.8917 2.22015L14.8084 0.553484Z" fill="#444444"/>
<path d="M9.6263 6.66653C9.6263 6.32135 9.34648 6.04153 9.0013 6.04153C8.65612 6.04153 8.3763 6.32135 8.3763 6.66653L8.3763 8.93773C8.37629 9.38259 8.37628 9.76095 8.40723 10.075C8.4402 10.4095 8.51171 10.7195 8.68333 11.0168C8.85496 11.314 9.08771 11.531 9.36092 11.7268C9.61739 11.9106 9.94508 12.0998 10.3304 12.3222L10.8539 12.6245C11.1529 12.797 11.5351 12.6946 11.7077 12.3957C11.8803 12.0968 11.7779 11.7145 11.4789 11.5419L10.9805 11.2542C10.5633 11.0133 10.2896 10.8545 10.0891 10.7108C9.89978 10.5751 9.81754 10.4813 9.76586 10.3918C9.71419 10.3023 9.67405 10.1841 9.6512 9.95234C9.627 9.70686 9.6263 9.39044 9.6263 8.90867L9.6263 6.66653Z" fill="#444444"/>
<path fill-rule="evenodd" clip-rule="evenodd" d="M9.0013 1.04153C4.05375 1.04153 0.0429688 5.05231 0.0429688 9.99986C0.0429688 14.9474 4.05375 18.9582 9.0013 18.9582C13.9489 18.9582 17.9596 14.9474 17.9596 9.99986C17.9596 5.05231 13.9489 1.04153 9.0013 1.04153ZM1.29297 9.99986C1.29297 5.74267 4.74411 2.29153 9.0013 2.29153C13.2585 2.29153 16.7096 5.74267 16.7096 9.99986C16.7096 14.2571 13.2585 17.7082 9.0013 17.7082C4.74411 17.7082 1.29297 14.2571 1.29297 9.99986Z" fill="#444444"/>
</g>
</g>
</svg>
