<svg width="21" height="19" viewBox="0 0 21 19" fill="none" xmlns="http://www.w3.org/2000/svg">
<path id="Vector" d="M2.65285 18.421C2.12788 18.421 1.6795 18.2351 1.30771 17.8633C0.935904 17.4915 0.75 17.0431 0.75 16.5181V5.58701C0.75 5.06205 0.935904 4.61367 1.30771 4.24188C1.6795 3.87007 2.12788 3.68417 2.65285 3.68417H7.06581V1.90282C7.06581 1.37785 7.25171 0.929476 7.62352 0.557686C7.99531 0.185896 8.44369 0 8.96865 0H12.5313C13.0563 0 13.5047 0.185896 13.8765 0.557686C14.2483 0.929476 14.4342 1.37785 14.4342 1.90282V3.68417H18.8472C19.3721 3.68417 19.8205 3.87007 20.1923 4.24188C20.5641 4.61367 20.75 5.06205 20.75 5.58701V16.5181C20.75 17.0431 20.5641 17.4915 20.1923 17.8633C19.8205 18.2351 19.3721 18.421 18.8472 18.421H2.65285ZM8.64473 3.68417H12.8553V1.90282C12.8553 1.82184 12.8215 1.74761 12.7541 1.68014C12.6866 1.61265 12.6123 1.5789 12.5313 1.5789H8.96865C8.88767 1.5789 8.81343 1.61265 8.74594 1.68014C8.67847 1.74761 8.64473 1.82184 8.64473 1.90282V3.68417ZM4.96054 5.26309H2.65285C2.57186 5.26309 2.49763 5.29683 2.43014 5.3643C2.36266 5.43179 2.32893 5.50603 2.32893 5.58701V16.5181C2.32893 16.5991 2.36266 16.6734 2.43014 16.7409C2.49763 16.8083 2.57186 16.8421 2.65285 16.8421H4.96054V5.26309ZM14.9605 16.8421V5.26309H6.53946V16.8421H14.9605ZM16.5395 5.26309V16.8421H18.8472C18.9281 16.8421 19.0024 16.8083 19.0699 16.7409C19.1373 16.6734 19.1711 16.5991 19.1711 16.5181V5.58701C19.1711 5.50603 19.1373 5.43179 19.0699 5.3643C19.0024 5.29683 18.9281 5.26309 18.8472 5.26309H16.5395Z" fill="#4B4B4D"/>
</svg>
