<svg width="21" height="19" viewBox="0 0 21 19" fill="none" xmlns="http://www.w3.org/2000/svg">
<path id="Vector" d="M16.5395 18.421V3.68417H18.8472C19.3789 3.68417 19.8289 3.86838 20.1974 4.2368C20.5658 4.60522 20.75 5.05529 20.75 5.58701V16.5181C20.75 17.0499 20.5658 17.4999 20.1974 17.8684C19.8289 18.2368 19.3789 18.421 18.8472 18.421H16.5395ZM8.64473 3.68417H12.8553V1.90282C12.8553 1.82184 12.8215 1.74761 12.7541 1.68014C12.6866 1.61265 12.6123 1.5789 12.5313 1.5789H8.96865C8.88767 1.5789 8.81343 1.61265 8.74594 1.68014C8.67847 1.74761 8.64473 1.82184 8.64473 1.90282V3.68417ZM6.53946 18.421V3.68417H7.06581V1.90282C7.06581 1.37112 7.25002 0.921055 7.61844 0.552633C7.98686 0.184211 8.43693 0 8.96865 0H12.5313C13.0631 0 13.5131 0.184211 13.8816 0.552633C14.25 0.921055 14.4342 1.37112 14.4342 1.90282V3.68417H14.9605V18.421H6.53946ZM2.65285 18.421C2.12113 18.421 1.67105 18.2368 1.30263 17.8684C0.934211 17.4999 0.75 17.0499 0.75 16.5181V5.58701C0.75 5.05529 0.934211 4.60522 1.30263 4.2368C1.67105 3.86838 2.12113 3.68417 2.65285 3.68417H4.96054V18.421H2.65285Z" fill="#0D99FF"/>
</svg>
