<svg width="20" height="16" viewBox="0 0 20 16" fill="none" xmlns="http://www.w3.org/2000/svg">
<path id="Vector" d="M4.18182 15.2614C3.4394 15.2614 2.80682 15.0038 2.28409 14.4886C1.76136 13.9735 1.5 13.3371 1.5 12.5796H1.36364C0.98485 12.5796 0.662877 12.447 0.397727 12.1818C0.132576 11.9167 0 11.5947 0 11.2159V2.10228C0 1.73865 0.136364 1.42047 0.409091 1.14774C0.681818 0.875011 1 0.738647 1.36364 0.738647H13.1591C13.5379 0.738647 13.8599 0.871223 14.125 1.13637C14.3901 1.40152 14.5227 1.7235 14.5227 2.10228V4.5341H16.5682C16.6894 4.5341 16.7955 4.55683 16.8864 4.60228C16.9773 4.64774 17.053 4.71592 17.1136 4.80683L19.8636 8.46592C19.9091 8.52651 19.9432 8.59092 19.9659 8.6591C19.9886 8.72728 20 8.79924 20 8.87501V11.8977C20 12.0947 19.9356 12.2576 19.8068 12.3864C19.678 12.5151 19.5151 12.5796 19.3182 12.5796H18.3864C18.3864 13.3371 18.125 13.9735 17.6023 14.4886C17.0795 15.0038 16.447 15.2614 15.7045 15.2614C14.9621 15.2614 14.3295 15.0038 13.8068 14.4886C13.2841 13.9735 13.0227 13.3371 13.0227 12.5796H6.86364C6.86364 13.3371 6.60227 13.9735 6.07955 14.4886C5.55682 15.0038 4.92423 15.2614 4.18182 15.2614ZM4.18182 13.8977C4.54545 13.8977 4.85605 13.769 5.11364 13.5114C5.37123 13.2538 5.5 12.9432 5.5 12.5796C5.5 12.2159 5.37123 11.9053 5.11364 11.6477C4.85605 11.3901 4.54545 11.2614 4.18182 11.2614C3.81818 11.2614 3.50758 11.3901 3.25 11.6477C2.99242 11.9053 2.86364 12.2159 2.86364 12.5796C2.86364 12.9432 2.99242 13.2538 3.25 13.5114C3.50758 13.769 3.81818 13.8977 4.18182 13.8977ZM1.36364 2.10228V11.2159H1.86364C2.12121 10.8068 2.44697 10.4811 2.84091 10.2386C3.23485 9.99624 3.67424 9.87501 4.15909 9.87501C4.64395 9.87501 5.08714 10 5.48864 10.25C5.89014 10.5 6.21968 10.822 6.47727 11.2159H13.1591V2.10228H1.36364ZM15.7045 13.8977C16.0682 13.8977 16.3788 13.769 16.6364 13.5114C16.894 13.2538 17.0227 12.9432 17.0227 12.5796C17.0227 12.2159 16.894 11.9053 16.6364 11.6477C16.3788 11.3901 16.0682 11.2614 15.7045 11.2614C15.3409 11.2614 15.0303 11.3901 14.7727 11.6477C14.5151 11.9053 14.3864 12.2159 14.3864 12.5796C14.3864 12.9432 14.5151 13.2538 14.7727 13.5114C15.0303 13.769 15.3409 13.8977 15.7045 13.8977ZM14.5227 9.26137H18.75L16.2273 5.89774H14.5227V9.26137Z" fill="#747474"/>
</svg>
