<svg width="14" height="14" viewBox="0 0 14 14" fill="none" xmlns="http://www.w3.org/2000/svg">
<g id="Upload">
<path id="Vector" d="M3.81188 12.959L3.69456 13.6997H3.69456L3.81188 12.959ZM1.04104 10.1881L1.78181 10.0708V10.0708L1.04104 10.1881ZM12.959 10.1881L13.6997 10.3054V10.3054L12.959 10.1881ZM10.1881 12.959L10.3054 13.6997H10.3054L10.1881 12.959ZM12.9333 5.8829C12.6845 5.55171 12.2143 5.48489 11.8831 5.73366C11.552 5.98242 11.4851 6.45257 11.7339 6.78377L12.9333 5.8829ZM2.2661 6.78377C2.51486 6.45257 2.44805 5.98242 2.11686 5.73366C1.78566 5.48489 1.31552 5.55171 1.06675 5.8829L2.2661 6.78377ZM6.25 10.3333C6.25 10.7475 6.58579 11.0833 7 11.0833C7.41422 11.0833 7.75 10.7475 7.75 10.3333H6.25ZM3.74565 3.2007C3.4883 3.52527 3.5428 3.997 3.86736 4.25435C4.19193 4.5117 4.66367 4.45721 4.92102 4.13264L3.74565 3.2007ZM5.26523 2.49135L4.67755 2.02538L5.26523 2.49135ZM8.73477 2.49135L9.32245 2.02538L8.73477 2.49135ZM9.07898 4.13264C9.33633 4.45721 9.80807 4.5117 10.1326 4.25435C10.4572 3.997 10.5117 3.52527 10.2544 3.2007L9.07898 4.13264ZM6.83289 1.01326L6.71489 0.272601L6.71488 0.272602L6.83289 1.01326ZM7.16711 1.01326L7.28512 0.272602L7.28512 0.272601L7.16711 1.01326ZM12.25 8.33333V9H13.75V8.33333H12.25ZM9 12.25H5V13.75H9V12.25ZM1.75 9V8.33333H0.25V9H1.75ZM5 12.25C4.352 12.25 4.11532 12.2477 3.92921 12.2182L3.69456 13.6997C4.02666 13.7523 4.40932 13.75 5 13.75V12.25ZM0.25 9C0.25 9.59068 0.247672 9.97334 0.300273 10.3054L1.78181 10.0708C1.75233 9.88467 1.75 9.648 1.75 9H0.25ZM3.92921 12.2182C2.82382 12.0431 1.95688 11.1762 1.78181 10.0708L0.300273 10.3054C0.577006 12.0527 1.94733 13.423 3.69456 13.6997L3.92921 12.2182ZM12.25 9C12.25 9.648 12.2477 9.88468 12.2182 10.0708L13.6997 10.3054C13.7523 9.97333 13.75 9.59068 13.75 9H12.25ZM9 13.75C9.59068 13.75 9.97334 13.7523 10.3054 13.6997L10.0708 12.2182C9.88468 12.2477 9.648 12.25 9 12.25V13.75ZM12.2182 10.0708C12.0431 11.1762 11.1762 12.0431 10.0708 12.2182L10.3054 13.6997C12.0527 13.423 13.423 12.0527 13.6997 10.3054L12.2182 10.0708ZM13.75 8.33333C13.75 7.41495 13.4459 6.56543 12.9333 5.8829L11.7339 6.78377C12.0582 7.21545 12.25 7.75091 12.25 8.33333H13.75ZM1.75 8.33333C1.75 7.75091 1.94184 7.21545 2.2661 6.78377L1.06675 5.8829C0.554082 6.56543 0.25 7.41495 0.25 8.33333H1.75ZM7.75 10.3333V1.66667H6.25V10.3333H7.75ZM4.92102 4.13264L5.85292 2.95732L4.67755 2.02538L3.74565 3.2007L4.92102 4.13264ZM8.14709 2.95732L9.07898 4.13264L10.2544 3.2007L9.32245 2.02538L8.14709 2.95732ZM5.85292 2.95732C6.23588 2.47432 6.48402 2.16323 6.68926 1.95719C6.78717 1.8589 6.85409 1.8068 6.89843 1.77913C6.91924 1.76614 6.93272 1.76005 6.93979 1.75728C6.94639 1.75469 6.94957 1.75413 6.9509 1.75392L6.71488 0.272602C6.25494 0.345883 5.90947 0.614575 5.62656 0.898577C5.34699 1.17922 5.03775 1.5711 4.67755 2.02538L5.85292 2.95732ZM9.32245 2.02538C8.96225 1.5711 8.65301 1.17922 8.37344 0.898578C8.09054 0.614576 7.74506 0.345884 7.28512 0.272602L7.04911 1.75392C7.05043 1.75413 7.05361 1.75469 7.06021 1.75728C7.06728 1.76005 7.08076 1.76614 7.10157 1.77913C7.14591 1.8068 7.21283 1.8589 7.31074 1.95719C7.51599 2.16323 7.76412 2.47432 8.14709 2.95732L9.32245 2.02538ZM6.9509 1.75392C6.96749 1.75127 6.98385 1.75 7 1.75V0.25C6.90452 0.25 6.80925 0.257566 6.71489 0.272601L6.9509 1.75392ZM7 1.75C7.01615 1.75 7.03251 1.75127 7.04911 1.75392L7.28512 0.272601C7.19075 0.257566 7.09548 0.25 7 0.25V1.75ZM7.75 1.66667V1H6.25V1.66667H7.75Z" fill="#4B4B4D"/>
</g>
</svg>
