<svg width="20" height="20" viewBox="0 0 20 20" fill="none" xmlns="http://www.w3.org/2000/svg">
<g id="wifi">
<mask id="mask0_1732_9765" style="mask-type:alpha" maskUnits="userSpaceOnUse" x="0" y="0" width="20" height="20">
<rect id="Bounding box" width="20" height="20" fill="#D9D9D9"/>
</mask>
<g mask="url(#mask0_1732_9765)">
<path id="wifi_2" d="M4.64551 12.1249C4.45106 11.9444 4.36079 11.7222 4.37467 11.4583C4.38856 11.1944 4.49273 10.993 4.68717 10.8541C5.4094 10.2569 6.2219 9.79493 7.12467 9.46826C8.02745 9.14215 8.98579 8.97909 9.99967 8.97909C11.0275 8.97909 11.9927 9.14576 12.8955 9.4791C13.7983 9.81243 14.6108 10.2777 15.333 10.8749C15.5275 11.0277 15.6283 11.2291 15.6355 11.4791C15.6422 11.7291 15.5483 11.9513 15.3538 12.1458C15.1733 12.3263 14.958 12.4166 14.708 12.4166C14.458 12.4166 14.2288 12.3472 14.0205 12.2083C13.4511 11.7638 12.8297 11.4235 12.1563 11.1874C11.4825 10.9513 10.7636 10.8333 9.99967 10.8333C9.23579 10.8333 8.51717 10.9549 7.84384 11.1983C7.16995 11.441 6.55523 11.7777 5.99967 12.2083C5.77745 12.361 5.54134 12.4305 5.29134 12.4166C5.04134 12.4027 4.82606 12.3055 4.64551 12.1249ZM1.10384 8.60409C0.923286 8.42354 0.833008 8.20465 0.833008 7.94743C0.833008 7.69076 0.923286 7.48604 1.10384 7.33326C2.29829 6.2916 3.64912 5.47215 5.15634 4.87493C6.66301 4.27771 8.27745 3.9791 9.99967 3.9791C11.7219 3.9791 13.3363 4.27771 14.843 4.87493C16.3502 5.47215 17.7011 6.2916 18.8955 7.33326C19.0761 7.48604 19.17 7.68743 19.1772 7.93743C19.1838 8.18743 19.09 8.40965 18.8955 8.60409C18.715 8.78465 18.4997 8.87493 18.2497 8.87493C17.9997 8.87493 17.7775 8.79854 17.583 8.64576C16.5413 7.75687 15.3783 7.06576 14.0938 6.57243C12.8088 6.07965 11.4441 5.83326 9.99967 5.83326C8.55523 5.83326 7.19079 6.07965 5.90634 6.57243C4.62134 7.06576 3.45801 7.75687 2.41634 8.64576C2.2219 8.79854 1.99967 8.87493 1.74967 8.87493C1.49967 8.87493 1.2844 8.78465 1.10384 8.60409ZM9.99967 16.7499C9.5969 16.7499 9.26023 16.611 8.98967 16.3333C8.71856 16.0555 8.58301 15.7152 8.58301 15.3124C8.58301 14.9097 8.71856 14.573 8.98967 14.3024C9.26023 14.0313 9.5969 13.8958 9.99967 13.8958C10.4025 13.8958 10.7394 14.0313 11.0105 14.3024C11.2811 14.573 11.4163 14.9097 11.4163 15.3124C11.4163 15.7152 11.2811 16.0555 11.0105 16.3333C10.7394 16.611 10.4025 16.7499 9.99967 16.7499Z" fill="#4B4B4D"/>
</g>
</g>
</svg>
